<?xml version="1.0" encoding="UTF-8" standalone="no"?><!DOCTYPE svg PUBLIC "-//W3C//DTD SVG 1.1//EN" "http://www.w3.org/Graphics/SVG/1.1/DTD/svg11.dtd"><svg width="100%" height="100%" viewBox="0 0 65 65" version="1.1" xmlns="http://www.w3.org/2000/svg" xmlns:xlink="http://www.w3.org/1999/xlink" xml:space="preserve" style="fill-rule:evenodd;clip-rule:evenodd;stroke-linejoin:round;stroke-miterlimit:1.41421;"><path d="M30.954,64.754l12.103,0c-0.353,-0.039 -0.705,-0.079 -0.94,-0.079l0.039,-22.991c2.937,-0.431 6.658,0.431 9.087,-0.47c0.43,-1.292 1.605,-8.303 0.822,-9.282c-0.901,-1.136 -7.951,-0.431 -9.948,-0.627c0,-2.468 -0.509,-8.068 0.94,-9.674c0.901,-0.94 2.35,-1.254 4.112,-1.254c1.919,-0.039 3.995,0.353 4.622,-0.626c0.509,-0.94 0.587,-7.05 -0.118,-7.834c-0.744,-0.979 -3.133,-0.587 -4.504,-0.587c-4.347,0 -8.421,-0.039 -11.75,3.446c-3.877,4.035 -3.29,9.91 -3.29,16.607c-8.578,0 -7.442,-0.94 -7.363,6.502c0,1.723 -0.392,2.624 0.783,3.564c0.235,0.118 -0.235,0.118 0.627,0.235c0.235,0.079 0.509,0.079 0.744,0.079l5.131,-0.04l-0.039,22.992c-0.353,0 -0.705,0.039 -1.058,0.039Z" style="fill:#fefefe;"/><path d="M32.012,64.715l0.039,-22.992l-5.131,0.04c-0.235,0 -0.509,0 -0.744,-0.079c-0.862,-0.117 -0.392,-0.117 -0.627,-0.235c-1.175,-0.94 -0.783,-1.841 -0.783,-3.564c-0.079,-7.442 -1.215,-6.502 7.363,-6.502c0,-6.697 -0.587,-12.572 3.29,-16.607c3.329,-3.485 7.403,-3.446 11.75,-3.446c1.371,0 3.76,-0.392 4.504,0.587c0.705,0.784 0.627,6.894 0.118,7.834c-0.627,0.979 -2.703,0.587 -4.622,0.626c-1.762,0 -3.211,0.314 -4.112,1.254c-1.449,1.606 -0.94,7.206 -0.94,9.674c1.997,0.196 9.047,-0.509 9.948,0.627c0.783,0.979 -0.392,7.99 -0.822,9.282c-2.429,0.901 -6.15,0.039 -9.087,0.47l-0.039,22.991c2.663,0.275 12.886,0.314 15.353,-0.078c3.839,-0.627 6.972,-3.956 7.246,-8.029c0.353,-5.444 0,-24.205 0,-31.06c0,-5.17 0.039,-10.301 0.039,-15.432c-0.039,-5.013 -2.076,-8.264 -6.031,-9.556c-2.625,-0.862 -38.423,-0.392 -46.179,-0.392c-3.877,0 -8.655,-0.431 -11.24,4.269c-1.881,3.369 -1.176,9.87 -1.176,14.257l0,31.099c0,6.11 -0.822,9.204 2.938,12.768c3.212,3.016 8.264,2.233 13.278,2.233c5.209,0 10.418,0.039 15.667,-0.039Z" style="fill:#465892;"/></svg>