<?xml version="1.0" encoding="UTF-8" standalone="no"?><!DOCTYPE svg PUBLIC "-//W3C//DTD SVG 1.1//EN" "http://www.w3.org/Graphics/SVG/1.1/DTD/svg11.dtd"><svg width="100%" height="100%" viewBox="0 0 28 28" version="1.1" xmlns="http://www.w3.org/2000/svg" xmlns:xlink="http://www.w3.org/1999/xlink" xml:space="preserve" style="fill-rule:evenodd;clip-rule:evenodd;stroke-linejoin:round;stroke-miterlimit:1.41421;"><g id="CorelEMF"><path d="M6.842,13.537c1.017,-0.97 2.357,-1.663 1.571,-3.049c-1.34,-2.403 -0.831,-3.881 -1.432,-6.099c-0.416,-1.478 -1.155,-0.739 -2.957,-0.277l-2.449,0.785c-1.432,0.462 -1.709,1.248 -1.524,2.357c1.293,8.085 6.607,15.015 13.86,18.295c2.079,0.924 4.297,1.478 6.514,1.848c2.31,0.416 2.033,0.185 2.726,-2.125c2.172,-7.3 1.155,-3.188 -5.775,-5.868c-1.894,-0.739 -1.848,0 -2.633,1.433c-0.416,0.739 -0.416,0.646 -1.571,-0.047c-2.634,-1.617 -4.851,-3.881 -6.422,-6.514c-0.277,-0.462 -0.277,-0.37 0.092,-0.739Zm15.662,-1.109c-0.323,-4.019 -3.465,-7.254 -7.438,-7.716c-1.432,-0.138 -1.386,1.525 -0.231,1.618c3.234,0.369 5.775,2.91 6.052,6.144c0.093,1.017 1.71,1.063 1.617,-0.046Zm-7.761,-10.811c5.821,0.323 10.534,4.944 10.857,10.811c0.092,1.063 1.709,1.294 1.617,-0.323c-0.508,-6.607 -5.914,-11.874 -12.613,-12.105c-0.739,0 -0.878,1.571 0.139,1.617Z" style="fill:#2a8235;"/></g></svg>