<?xml version="1.0" encoding="UTF-8" standalone="no"?>
<!-- Created with Inkscape (http://www.inkscape.org/) -->

<svg
   xmlns:dc="http://purl.org/dc/elements/1.1/"
   xmlns:cc="http://creativecommons.org/ns#"
   xmlns:rdf="http://www.w3.org/1999/02/22-rdf-syntax-ns#"
   xmlns:svg="http://www.w3.org/2000/svg"
   xmlns="http://www.w3.org/2000/svg"
   xmlns:sodipodi="http://sodipodi.sourceforge.net/DTD/sodipodi-0.dtd"
   xmlns:inkscape="http://www.inkscape.org/namespaces/inkscape"
   width="210mm"
   height="297mm"
   viewBox="0 0 210 297"
   version="1.1"
   id="svg8"
   inkscape:version="0.92.1 r15371"
   sodipodi:docname="logo.svg">
  <defs
     id="defs2" />
  <sodipodi:namedview
     id="base"
     pagecolor="#ffffff"
     bordercolor="#666666"
     borderopacity="1.0"
     inkscape:pageopacity="0.0"
     inkscape:pageshadow="2"
     inkscape:zoom="0.98994949"
     inkscape:cx="298.2784"
     inkscape:cy="842.1943"
     inkscape:document-units="mm"
     inkscape:current-layer="layer1"
     showgrid="false"
     showguides="false"
     inkscape:window-width="1920"
     inkscape:window-height="1051"
     inkscape:window-x="-9"
     inkscape:window-y="-9"
     inkscape:window-maximized="1" />
  <metadata
     id="metadata5">
    <rdf:RDF>
      <cc:Work
         rdf:about="">
        <dc:format>image/svg+xml</dc:format>
        <dc:type
           rdf:resource="http://purl.org/dc/dcmitype/StillImage" />
        <dc:title></dc:title>
      </cc:Work>
    </rdf:RDF>
  </metadata>
  <g
     inkscape:label="Vrstva 1"
     inkscape:groupmode="layer"
     id="layer1">
    <path
       style="fill:#09b82f;fill-opacity:1;stroke-width:0.26458332"
       d="m 140.51532,181.38171 c -2.36234,-4.95228 -4.01635,-10.41503 -4.54668,-15.01638 -0.39098,-3.39232 -0.19771,-11.21858 0.34425,-13.94009 0.45712,-2.29549 1.52595,-6.23086 2.47474,-9.11191 1.64558,-4.99682 0.98828,-13.79126 -1.30098,-17.40664 -1.17918,-1.86224 -3.09363,-4.69015 -3.49461,-5.16199 -0.18549,-0.21828 -0.39398,-0.99219 -0.4633,-1.71979 -0.12409,-1.30252 -0.88594,-3.50677 -1.12828,-3.26444 -0.0683,0.0683 0.11191,0.94936 0.40035,1.95801 0.55433,1.9384 0.68255,3.69103 0.28787,3.93496 -0.13013,0.0804 -0.63614,-0.62649 -1.12448,-1.57091 -0.48834,-0.94442 -0.96327,-1.71756 -1.05538,-1.7181 -0.25309,-0.002 0.49593,2.02191 1.51187,4.08418 0.49751,1.00991 0.90457,1.99218 0.90457,2.18281 0,1.22623 -1.7548,-0.9406 -3.18904,-3.93784 -0.7503,-1.56795 -1.00486,-1.93244 -0.88822,-1.2718 0.26601,1.5067 1.65112,4.16513 2.90674,5.57889 0.64379,0.72487 1.17052,1.41319 1.17052,1.5296 0,1.45662 -3.491,-1.98085 -4.98421,-4.90779 -0.85729,-1.68043 -1.56934,-4.57417 -1.77619,-7.21842 -0.10336,-1.32116 -0.29142,-2.46609 -0.41793,-2.54427 -0.1265,-0.0782 -0.23,-0.0161 -0.23,0.13805 0,0.4715 -0.61963,0.31504 -1.72383,-0.43527 -6.22193,-4.22792 -14.66241,-6.71767 -22.75065,-6.71093 -2.641928,0.002 -11.114148,0.74493 -15.080728,1.32209 -3.087796,0.44928 -12.664236,0.0105 -17.330208,-0.79416 -6.416966,-1.10655 -8.837541,-1.84097 -16.404167,-4.97716 -5.434028,-2.25228 -7.009042,-2.66814 -12.1959,-3.22014 l -3.067777,-0.32649 -2.376424,1.09469 c -3.94708,1.8182 -7.079736,2.1113 -10.274586,0.96133 -2.387261,-0.85928 -3.042413,-1.35744 -3.76694,-2.86425 -0.85713,-1.782596 -1.000595,-3.636106 -0.463986,-5.994506 0.780325,-3.42953 0.776195,-3.7232 -0.08251,-5.8677 -0.435047,-1.08648 -1.203266,-2.62173 -1.707153,-3.41167 -1.69899,-2.66349 -2.34192,-4.32633 -2.393732,-6.191012 -0.04677,-1.683139 -0.02329,-1.747663 1.012774,-2.783729 0.625669,-0.625668 1.652097,-1.276831 2.502816,-1.58778 1.605899,-0.586976 4.248747,-0.73419 5.363747,-0.298776 2.035865,0.795023 3.223494,1.474227 4.642176,2.654866 3.754796,3.124771 6.17217,7.863261 7.030804,13.781631 l 0.364662,2.51355 0.02996,-2.11667 c 0.03323,-2.34784 -0.329576,-4.00295 -1.379162,-6.2917 -0.385696,-0.84105 -0.701265,-1.6317 -0.701265,-1.75698 0,-0.12528 -0.693097,-1.28331 -1.540213,-2.5734 -1.991434,-3.032786 -4.686752,-5.517535 -7.10816,-6.552845 -2.078561,-0.888719 -2.464126,-1.143891 -2.464126,-1.630793 0,-0.19381 0.595312,-1.386941 1.322916,-2.651403 0.727604,-1.264462 1.322917,-2.342176 1.322917,-2.394924 0,-0.404222 4.895838,-7.472828 6.422379,-9.272624 1.051597,-1.239837 2.168298,-2.608093 2.481554,-3.04057 1.745578,-2.409912 6.99354,-6.749611 10.278358,-8.499486 0.436563,-0.232563 2.255658,-1.908116 4.042434,-3.723452 2.614419,-2.656202 4.009149,-3.811304 7.14375,-5.916374 4.988912,-3.350351 11.185369,-6.420728 14.807612,-7.33725 0.837579,-0.21193 2.177714,-0.580323 2.978079,-0.818653 1.764294,-0.525364 3.27891,-0.838 5.55625,-1.14688 0.945885,-0.128292 1.906889,-0.310033 2.135566,-0.403868 0.228676,-0.09384 2.193208,-0.276685 4.365625,-0.406332 4.109608,-0.245255 5.348414,-0.442357 8.447767,-1.34409 1.874237,-0.545296 3.026979,-0.851688 4.828651,-1.283427 0.5457,-0.130769 1.58749,-0.381014 2.3151,-0.556101 1.54587,-0.371993 3.65803,-0.712313 6.61458,-1.065776 1.16417,-0.139178 3.06917,-0.392803 4.23333,-0.56361 1.18895,-0.174443 5.10516,-0.31131 8.93518,-0.312273 6.5856,-0.0017 6.84506,0.01792 7.59605,0.573153 0.42766,0.316178 1.01789,0.574868 1.31164,0.574868 0.3317,0 1.6363,1.127916 3.44284,2.976562 1.59981,1.63711 3.00141,3.064046 3.11465,3.170971 3.57297,3.373683 5.38863,5.251017 6.84897,7.081633 0.98673,1.236927 1.87079,2.30849 1.96457,2.38125 0.17541,0.136094 2.43773,3.481641 3.30994,4.894792 0.50527,0.818636 1.58616,2.955406 3.0094,5.949185 0.44865,0.943718 0.81572,1.9276 0.81572,2.186402 0,0.258803 0.10788,0.677294 0.23973,0.929982 0.13185,0.252687 0.44699,1.233336 0.70032,2.179222 0.25332,0.945885 0.87016,3.00686 1.37074,4.579942 0.86089,2.705338 0.90609,3.034729 0.83499,6.085417 -0.0708,3.037993 -0.0351,3.302079 0.61553,4.548182 0.37988,0.727604 1.36167,2.751666 2.18175,4.497916 0.82007,1.74625 1.60431,3.381743 1.74274,3.634431 0.13843,0.252687 0.2517,0.675359 0.2517,0.93927 0,0.263912 0.10652,0.592953 0.23671,0.731193 0.32142,0.34132 0.64942,1.97115 0.39668,1.97115 -0.11133,0 -0.49479,-0.26789 -0.85214,-0.59532 l -0.64973,-0.59531 0.18218,1.32292 c 0.10019,0.7276 0.24572,2.15635 0.32339,3.175 0.23681,3.10587 0.73157,3.92754 2.55442,4.24227 2.10581,0.36358 3.01651,-1.44333 1.75568,-3.48341 -0.42749,-0.69168 -0.45935,-0.85602 -0.14237,-0.73439 0.2246,0.0862 0.48651,0.4136 0.58202,0.72758 0.0955,0.31397 0.34594,0.76742 0.55651,1.00765 0.65552,0.74788 0.0274,2.44681 -1.10293,2.98318 -0.87218,0.41388 -0.91099,0.49015 -0.78901,1.55037 0.59141,5.14007 0.73018,6.4996 0.92402,9.052576 0.27023,3.55907 0.31844,7.80521 0.0886,7.80521 -0.0931,0 -0.32149,-0.20817 -0.50753,-0.46261 -0.93806,-1.28286 -0.54752,0.36912 1.20395,5.09282 0.32374,0.87312 0.75962,2.23886 0.96863,3.03497 0.46038,1.75361 0.98826,2.38898 1.98481,2.38898 0.41401,0 0.75274,0.11906 0.75274,0.26458 0,0.14553 -0.40807,0.26459 -0.90683,0.26459 -1.25462,0 -2.07066,-1.08509 -2.68622,-3.57187 -0.18597,-0.75133 -0.20771,-0.72305 -0.40672,0.52916 -0.11563,0.7276 -0.16838,3.20539 -0.11722,5.5062 l 0.093,4.18328 -1.34615,1.99259 c -1.6435,2.43273 -5.09749,5.70667 -7.0653,6.69698 -2.94503,1.4821 -7.48792,2.65532 -10.28183,2.65532 h -1.22755 l -0.0333,1.12448 c -0.0183,0.61847 -0.12483,3.04302 -0.23669,5.3879 -0.3021,6.33266 0.54339,13.22309 2.57732,21.00429 0.58959,2.25557 1.26553,5.03231 1.50209,6.17052 0.23656,1.13822 0.51223,1.98736 0.6126,1.88699 0.10037,-0.10036 0.12931,-0.49585 0.0643,-0.87885 -0.4535,-2.67252 -1.25993,-6.69536 -1.83686,-9.16304 -1.89921,-8.12354 -2.5553,-13.22917 -2.37212,-18.4597 0.19449,-5.55348 0.32845,-6.54342 0.88545,-6.54342 0.42325,0 0.46351,0.39403 0.46628,4.56406 0.004,5.59106 0.29425,7.18573 2.58465,14.18634 0.9347,2.85692 1.83894,5.90877 2.00941,6.78189 0.17048,0.87313 0.47712,2.38491 0.68144,3.35952 0.5499,2.62315 0.48274,4.23134 -0.22384,5.35954 -2.08446,3.32831 -4.0073,5.96532 -4.34976,5.96532 -0.19063,0 -0.34659,0.22026 -0.34659,0.48946 0,0.43204 -1.36525,2.59949 -1.85824,2.95012 -0.1023,0.0728 -0.57193,0.93596 -1.04362,1.91823 -0.47168,0.98226 -0.93785,1.78594 -1.03592,1.78594 -0.0981,0 -0.31415,-0.98227 -0.48019,-2.18282 -0.16604,-1.20054 -0.92601,-4.20687 -1.68882,-6.68073 -2.62057,-8.49866 -3.14274,-11.28922 -3.23659,-17.29687 -0.0271,-1.73662 -0.13863,-3.10237 -0.24777,-3.035 -0.28886,0.17829 -0.24278,4.76386 0.0819,8.14885 0.45586,4.75287 0.79215,6.41824 2.12172,10.5071 1.19582,3.67752 2.77368,9.63206 2.93302,11.06863 0.0929,0.8375 -1.05618,3.70417 -1.48478,3.70417 -0.17688,0 -0.93617,-1.28835 -1.6873,-2.86299 z m 4.89693,-8.82829 c -0.0845,-0.21106 -0.14716,-0.14837 -0.15985,0.15986 -0.0115,0.27891 0.051,0.43518 0.13896,0.34726 0.0879,-0.0879 0.0973,-0.31612 0.0209,-0.50712 z m -0.59291,-3.08079 c -0.25259,-0.97041 -0.73225,-2.73515 -1.06589,-3.92164 -0.68363,-2.43105 -1.30107,-5.30189 -1.81222,-8.42608 -0.43889,-2.68251 -0.43493,-2.61095 -0.43,-7.77183 0.004,-4.52271 0.32364,-7.33285 1.4739,-12.97075 0.70141,-3.43788 0.72333,-4.38469 0.0516,-2.22716 -1.24077,3.98499 -1.81982,7.98514 -2.17883,15.0517 -0.24186,4.76065 0.70927,11.0639 2.65203,17.57533 0.62955,2.11005 1.23398,4.19365 1.34317,4.63021 0.14793,0.59146 0.22745,0.67026 0.31203,0.30918 0.0624,-0.26651 -0.0932,-1.27854 -0.34576,-2.24896 z m 2.16909,-5.01793 c -0.37218,-1.55753 -0.93047,-3.90344 -1.24064,-5.21313 -0.31017,-1.30968 -0.77426,-3.81 -1.03131,-5.55625 -0.85019,-5.77577 -0.35554,-18.91332 0.79292,-21.05923 0.20362,-0.38046 0.18203,-0.50431 -0.0879,-0.50431 -0.22692,0 -0.52037,0.70169 -0.8022,1.91823 -1.19099,5.14091 -1.48302,12.36777 -0.72441,17.92695 0.6743,4.94132 1.70615,10.00795 2.38804,11.72586 0.12571,0.31671 0.44579,1.38191 0.71128,2.36711 0.7535,2.7961 0.74903,1.55352 -0.006,-1.60523 z m -7.62765,-18.31 c 0.0115,-0.6002 -0.008,-0.61245 -0.21469,-0.13229 -0.12506,0.29104 -0.22167,0.94588 -0.21468,1.45521 l 0.0127,0.92604 0.20198,-0.79375 c 0.11108,-0.43656 0.20769,-1.09141 0.21468,-1.45521 z m 8.67539,-17.4004 c 0.16012,-0.10692 0.43664,-0.47059 0.6145,-0.80816 0.286,-0.54282 0.19935,-0.8181 -0.74953,-2.38125 -1.8513,-3.04979 -2.27893,-3.34908 -2.52535,-1.76748 -0.0794,0.50932 -0.21203,1.3578 -0.29483,1.8855 -0.0828,0.5277 -0.007,1.30642 0.16882,1.73048 0.4651,1.12286 2.00391,1.86338 2.78639,1.34091 z m 6.88614,-10.62369 c 0.99308,-0.45096 1.76278,-1.10941 1.23888,-1.05981 -0.5869,0.0556 -3.32034,1.52858 -2.85989,1.54116 0.29104,0.008 1.0205,-0.20866 1.62101,-0.48135 z m 0.87869,-6.49657 c 2.09134,-1.1275 4.85902,-3.07095 5.23138,-3.67344 0.19067,-0.30851 -0.34327,-7.9e-4 -4.29149,2.47309 -4.07839,2.55545 -4.53498,3.13857 -0.93989,1.20035 z m -4.02832,-2.78558 c 0.63257,0 0.73076,-0.18236 0.38837,-0.72131 -0.15268,-0.24033 -0.45294,-0.25627 -1.1583,-0.0615 -0.76952,0.21248 -0.94492,0.38288 -0.91431,0.88832 0.0344,0.56809 0.0857,0.59191 0.55976,0.25995 0.28703,-0.201 0.79305,-0.36545 1.12448,-0.36545 z m -6.14742,-0.26459 c 0.48478,0 0.58574,-0.11207 0.47666,-0.52916 -0.16047,-0.61365 -0.77548,-0.65059 -2.32562,-0.1397 -0.72168,0.23784 -0.87393,0.35762 -0.47863,0.37654 0.31883,0.0153 0.6583,0.15492 0.75436,0.31036 0.0961,0.15544 0.35096,0.21497 0.56643,0.13229 0.21546,-0.0827 0.66852,-0.15033 1.0068,-0.15033 z m -5.15625,-1.19062 c 0,-0.44512 -0.0486,-0.46315 -0.6383,-0.23686 -0.48437,0.18587 -0.30271,0.63373 0.25704,0.63373 0.2097,0 0.38126,-0.17859 0.38126,-0.39687 z m -16.0279,-3.85526 c -0.14716,-4.42845 -0.34482,-5.78472 -1.16091,-7.96592 -0.65954,-1.762776 -2.03006,-3.747326 -2.42102,-3.505696 -0.15253,0.0943 -1.58537,-0.50823 -3.1841,-1.33888 -1.59872,-0.83065 -2.97802,-1.43903 -3.0651,-1.35195 -0.19859,0.19859 -0.3274,0.0977 2.17882,1.70659 1.16417,0.74734 2.83701,1.66496 3.71742,2.03915 1.46776,0.62383 2.48863,1.539526 2.12346,1.904706 -0.48479,0.48479 -5.64371,-2.008426 -8.86466,-4.284136 -0.93548,-0.66095 -1.76406,-1.13853 -1.84129,-1.0613 -0.22219,0.22218 2.00556,2.09105 4.57838,3.84083 2.53875,1.726606 4.20225,2.630866 5.77883,3.141306 0.98665,0.31944 1.51932,0.92154 1.51932,1.71733 0,0.6479 -0.68868,0.49973 -3.14555,-0.67676 -2.74305,-1.31353 -5.3077,-3.00643 -8.72418,-5.758746 -2.88821,-2.32673 -3.27446,-2.5918 -3.05079,-2.09365 0.2597,0.57841 6.18786,5.695186 8.45807,7.300436 1.17507,0.83088 3.16796,2.04648 4.42863,2.70132 1.84362,0.95765 2.29275,1.30712 2.29527,1.78594 0.004,0.8514 -0.51995,0.75652 -2.8536,-0.51622 -3.93228,-2.14462 -5.8995,-3.59773 -9.97555,-7.368576 -3.10377,-2.87136 -3.85712,-3.49367 -4.0255,-3.3253 -0.25771,0.25772 4.87743,5.565126 7.86195,8.125706 2.10024,1.8019 5.76899,4.58831 7.62312,5.78975 1.34758,0.8732 1.70323,1.32954 1.0362,1.32954 -0.38065,0 -3.77333,-2.18366 -6.15138,-3.95927 -2.2621,-1.68902 -5.2729,-4.42911 -9.46175,-8.611016 -2.00559,-2.00226 -3.71884,-3.56817 -3.80721,-3.4798 -0.39441,0.39441 4.501,5.693236 7.93148,8.585096 2.71406,2.28791 8.28965,6.32032 10.31235,7.45815 1.22081,0.68675 1.49768,0.96129 1.37123,1.35971 -0.10812,0.34063 -0.0299,0.49921 0.24606,0.49921 0.35093,0 0.38696,-0.52822 0.272,-3.98755 z m -1.20376,3.33645 c -0.0671,-0.0671 -0.97913,-0.57309 -2.0268,-1.12448 -4.09303,-2.15418 -13.53857,-9.12303 -17.77423,-13.113696 -0.96156,-0.90595 -2.57734,-2.5932 -3.590612,-3.74946 -2.971157,-3.3904 -3.274142,-3.69784 -3.460543,-3.51144 -0.376836,0.37684 5.518295,6.68667 9.423435,10.086336 4.58431,3.99093 6.9331,5.73708 12.17083,9.0481 2.10003,1.32753 5.9541,3.06081 5.25792,2.36464 z m 21.65975,-2.04266 c -0.39303,-0.24865 2.51669,-3.02375 3.44144,-3.28222 0.32641,-0.0912 0.52338,-0.27931 0.43771,-0.41793 -0.0857,-0.13863 0.54022,-0.98913 1.39089,-1.89001 1.43711,-1.52193 1.71533,-1.69051 3.92791,-2.37988 3.23589,-1.00819 3.57188,-1.08087 3.57188,-0.77263 0,0.57169 -3.25215,3.23702 -5.08303,4.16585 l -1.92843,0.97832 1.25677,-0.17737 c 1.06708,-0.15061 1.25677,-0.11089 1.25677,0.26312 0,0.33554 0.23641,0.23447 0.99219,-0.42414 0.5457,-0.47555 1.05172,-1.00178 1.12448,-1.16941 0.0728,-0.16763 0.99608,-1.31467 2.05183,-2.54898 1.79716,-2.10113 3.118,-4.148486 2.84955,-4.416936 -0.0647,-0.0647 -0.68801,0.34751 -1.38506,0.91609 -2.11936,1.728746 -3.32345,2.432506 -4.67591,2.732956 -0.71053,0.15785 -1.3574,0.22146 -1.43749,0.14138 -0.0801,-0.0801 0.10949,-0.47108 0.42127,-0.86889 0.31179,-0.39779 1.55397,-2.181816 2.76041,-3.964486 1.20644,-1.78267 2.40686,-3.31032 2.6676,-3.39477 0.32874,-0.10649 0.42378,-0.31205 0.30999,-0.67054 -0.0973,-0.30662 0.0597,-0.89622 0.38582,-1.44899 0.64304,-1.08988 0.65802,-1.16903 0.21918,-1.15817 -0.18191,0.004 -0.74745,0.56172 -1.25678,1.23828 -1.2371,1.64329 -3.98173,3.87722 -5.45474,4.43977 -0.6556,0.25038 -1.23998,0.40724 -1.29863,0.34859 -0.14649,-0.14649 4.32587,-8.88542 4.64979,-9.08562 0.14307,-0.0884 0.19225,-0.2706 0.10929,-0.40483 -0.083,-0.13424 0.25883,-1.28687 0.75953,-2.56141 0.5007,-1.27454 0.98379,-2.63746 1.07354,-3.02873 0.27842,-1.213848 -0.2217,-1.02968 -0.7334,0.27008 -1.1919,3.02756 -1.95337,4.18989 -4.39704,6.71179 -3.29765,3.40322 -3.88273,3.44736 -2.41542,0.18227 0.41777,-0.92964 1.08949,-2.64275 1.49272,-3.80691 0.40323,-1.16417 0.9093,-2.3206 1.12459,-2.56984 0.2153,-0.24924 0.32832,-0.61767 0.25117,-0.81873 -0.0771,-0.20106 0.0768,-1.306825 0.34204,-2.457252 0.68034,-2.950445 0.90546,-5.033282 0.56665,-5.242679 -0.16615,-0.102687 -0.39457,0.285123 -0.56554,0.960202 -1.16468,4.598594 -2.45068,6.945409 -5.94738,10.853329 -1.47045,1.64339 -2.25717,2.1764 -2.25717,1.52928 0,-0.24615 0.58186,-1.90609 1.06844,-3.04806 0.12401,-0.29105 0.54622,-1.7198 0.93825,-3.175 0.39203,-1.455212 0.87975,-2.917091 1.08383,-3.248624 0.20408,-0.331531 0.29187,-0.730925 0.19507,-0.887537 -0.0968,-0.156615 -0.0397,-1.135517 0.12681,-2.17534 0.8515,-5.316458 1.02696,-7.107576 0.78287,-7.991573 -0.13826,-0.500758 -0.3489,-0.910471 -0.46808,-0.910471 -0.11919,0 -0.48605,0.744141 -0.81525,1.653646 -0.32921,0.909505 -0.87859,2.189427 -1.22084,2.844271 -0.77903,1.490524 -2.85018,3.836648 -3.1975,3.621997 -0.16405,-0.101391 -0.17766,-0.726355 -0.0369,-1.692923 0.12275,-0.842709 0.23328,-3.308866 0.24563,-5.480349 0.0124,-2.171483 0.13342,-4.240016 0.26904,-4.596744 0.18256,-0.480165 0.14696,-0.72599 -0.13708,-0.946642 -0.21103,-0.163925 -0.51915,-0.81608 -0.68473,-1.449234 -0.16557,-0.633153 -0.33901,-1.109403 -0.38542,-1.058333 -0.0464,0.05107 -0.21454,1.074447 -0.37362,2.274173 -0.15909,1.199727 -0.48344,2.77504 -0.72079,3.500697 -0.52459,1.603835 -2.80243,5.641501 -3.15954,5.600541 -0.23163,-0.02657 -0.46258,-2.623238 -0.69753,-7.842975 -0.0459,-1.018646 0.0198,-2.188189 0.14591,-2.598986 0.19352,-0.630407 0.15849,-0.733573 -0.2246,-0.661458 -0.35585,0.06699 -0.64416,-0.444664 -1.33478,-2.368762 -1.00037,-2.78711 -1.97063,-4.547325 -1.9781,-3.588636 -0.002,0.314455 0.24428,1.326486 0.54829,2.248958 0.66489,2.017472 0.977,6.951268 0.54154,8.560453 -0.31475,1.163074 -1.73708,3.567806 -2.11026,3.567806 -0.12863,0 -0.31443,-0.786283 -0.41289,-1.747298 -0.45288,-4.420433 -1.67016,-8.156746 -4.52873,-13.900538 -0.65239,-1.310849 -1.18616,-2.67915 -1.18616,-3.040668 0,-0.361519 -0.11192,-0.588135 -0.24872,-0.50359 -0.29445,0.181983 -0.55024,-0.09635 -1.64289,-1.787662 -0.45065,-0.697564 -0.87756,-1.210096 -0.9487,-1.13896 -0.0711,0.07114 0.20633,1.05859 0.61658,2.19434 0.58912,1.630929 0.74414,2.509936 0.73745,4.181668 -0.008,1.931681 -0.35643,3.307575 -0.83813,3.307109 -0.10402,-10e-5 -0.87965,-1.339553 -1.72362,-2.976562 -2.54748,-4.941218 -4.63214,-8.322381 -5.76113,-9.344099 -0.6851,-0.620003 -0.65864,-0.517665 0.44556,1.723708 1.48592,3.016226 1.99698,5.083174 1.83515,7.422136 l -0.1373,1.984375 0.38208,-1.455208 c 0.21015,-0.800365 0.38713,-1.852084 0.3933,-2.337152 0.0158,-1.243568 0.47617,-0.967015 1.49479,0.897959 1.25966,2.306285 1.79396,4.739065 1.61529,7.354776 -0.16038,2.347976 -0.86272,4.751376 -1.34202,4.592423 -0.1659,-0.05502 -0.49434,-0.804723 -0.72985,-1.666002 -0.23552,-0.86128 -0.80052,-2.518463 -1.25556,-3.68263 -0.45504,-1.164166 -0.82789,-2.315104 -0.82856,-2.557639 -7.9e-4,-0.242533 -0.0966,-0.480658 -0.21317,-0.529167 -0.11657,-0.04851 -0.95739,-1.397881 -1.86849,-2.99861 -0.9111,-1.600729 -1.76303,-3.08901 -1.89318,-3.307292 -0.13016,-0.218281 -0.31309,-1.565857 -0.40651,-2.994615 -0.0934,-1.428755 -0.21751,-2.550106 -0.27572,-2.491888 -0.11626,0.116253 -0.29524,1.500492 -0.34165,2.642233 -0.0359,0.883896 -0.6285,0.960837 -1.01888,0.132291 -0.38546,-0.818112 -4.5185,-5.691833 -5.72152,-6.746874 -1.25259,-1.098511 -1.67807,-1.098511 -1.01674,0 1.01228,1.68145 1.96049,4.54462 2.16093,6.524997 0.11177,1.1043 0.12301,2.098204 0.025,2.208684 -0.15976,0.180059 -4.106,-4.478896 -5.43857,-6.420805 -0.29104,-0.424127 -0.64823,-0.77626 -0.79375,-0.78252 -0.14552,-0.0063 -0.97896,-0.637829 -1.85208,-1.403489 -2.031502,-1.781457 -3.792835,-2.970669 -4.037488,-2.726015 -0.105293,0.105292 0.04569,0.319958 0.335521,0.477035 0.28983,0.157077 1.3604,1.130413 2.379046,2.162968 2.010781,2.03824 3.285601,4.267622 3.963431,6.931211 l 0.39718,1.560746 -0.1455,-1.5875 c -0.08,-0.873125 -0.20599,-1.795859 -0.27991,-2.050521 -0.0845,-0.291068 0.009,-0.463021 0.25228,-0.463021 0.54258,0 3.15802,3.526113 3.99839,5.390602 1.28133,2.842819 1.88138,6.958055 1.05415,7.229486 -0.15674,0.05143 -0.59577,-0.475097 -0.97563,-1.170059 -0.37986,-0.694965 -1.35294,-2.212906 -2.16242,-3.373207 -0.96238,-1.379474 -1.47177,-2.375112 -1.47177,-2.876667 0,-0.661908 -0.0561,-0.72051 -0.409,-0.427598 -0.34987,0.29037 -0.66481,0.05602 -2.17887,-1.62125 -0.97343,-1.078376 -2.575326,-2.752135 -3.559759,-3.719468 -0.98443,-0.967332 -1.789874,-1.890068 -1.789874,-2.050521 0,-0.160454 -0.148868,-0.291734 -0.330819,-0.291734 -0.181949,0 -1.351571,-0.76609 -2.599164,-1.702421 -2.134602,-1.602046 -4.540374,-3.060079 -5.049165,-3.060079 -0.125082,0 -0.07871,0.238125 0.10305,0.529167 0.181758,0.291041 0.494239,0.529166 0.694399,0.529166 0.20016,0 0.975193,0.436596 1.722292,0.970213 3.413133,2.43783 5.583274,5.339486 6.055582,8.096801 0.52673,3.075035 0.283758,3.047754 -3.127899,-0.351203 -2.884487,-2.873745 -3.066015,-3.119125 -3.579474,-4.838552 -0.297489,-0.996205 -0.592195,-1.759977 -0.654902,-1.69727 -0.06271,0.06271 0.06351,0.699191 0.280472,1.414408 0.216966,0.715218 0.395772,1.342897 0.397348,1.394848 0.0073,0.238755 -0.84352,-0.288859 -2.785768,-1.727647 -2.546326,-1.886279 -4.686816,-3.201955 -5.569889,-3.423592 l -0.653839,-0.164102 0.566161,1.419819 c 1.069078,2.681043 1.312317,3.500158 1.101884,3.710592 -0.115949,0.115948 -0.906788,-0.208431 -1.757418,-0.720846 -1.616724,-0.973902 -2.459625,-1.008731 -1.084242,-0.0448 1.227963,0.860608 3.261334,3.110416 4.002016,4.427999 0.545994,0.971253 1.947405,5.392306 1.949958,6.151562 0.0016,0.456126 -0.888367,0.148664 -1.380479,-0.476954 -0.902981,-1.147953 -0.790726,-0.554511 0.311782,1.64823 0.580954,1.160711 1.327116,3.201048 1.658136,4.534077 0.331018,1.333032 0.695251,2.425245 0.809403,2.427139 0.504428,0.0084 -0.810737,-7.449063 -2.274277,-12.895923 -0.371665,-1.383237 -0.552431,-2.513481 -0.415522,-2.598095 0.386051,-0.238593 3.616224,2.755098 4.86215,4.506193 1.867929,2.625293 2.754373,4.744418 3.185866,7.616092 0.430533,2.865289 0.50501,5.227261 0.164825,5.227261 -0.122394,0 -0.537387,-0.565547 -0.922208,-1.256771 -1.303263,-2.340951 -2.336557,-3.298917 -1.272876,-1.180083 1.221033,2.432282 2.416376,7.210353 2.417254,9.662366 2.46e-4,0.686236 0.09649,0.948391 0.301631,0.821607 0.207793,-0.128423 0.254169,-0.913137 0.149471,-2.529154 -0.125016,-1.929643 -0.08481,-2.342965 0.227901,-2.342965 0.436211,0 0.48577,-0.365749 0.137689,-1.016143 -0.133104,-0.248705 -0.313084,-1.818457 -0.39996,-3.488335 -0.08688,-1.669881 -0.273388,-4.044466 -0.414472,-5.276858 -0.14964,-1.30715 -0.158525,-2.338702 -0.02132,-2.475907 0.335325,-0.335325 2.618795,3.232883 3.418681,5.342115 0.595238,1.569598 0.677561,2.241343 0.77643,6.335646 0.109429,4.531502 -0.02273,6.400315 -0.452652,6.400315 -0.121954,0 -0.29043,-0.262691 -0.374393,-0.583758 -0.272206,-1.040921 -0.399084,-0.377351 -0.162206,0.848342 0.126556,0.654843 0.247246,2.143124 0.268201,3.307291 0.0331,1.838714 0.06872,1.986833 0.271248,1.127964 0.505706,-2.144546 1.224862,-8.05574 1.404839,-11.547271 0.07787,-1.510514 0.211932,-2.816754 0.297932,-2.902754 0.217596,-0.217594 0.523671,0.31841 1.467876,2.57057 1.22349,2.918301 1.65499,5.648414 1.51113,9.560866 -0.10561,2.872264 -0.0765,3.202884 0.22135,2.513542 0.18862,-0.436563 0.34832,-1.038884 0.35489,-1.338493 0.007,-0.299609 0.18826,-0.775859 0.40378,-1.058333 0.33916,-0.44454 0.42755,-0.460232 0.6574,-0.116716 0.23581,0.352401 0.26602,0.352206 0.26962,-0.0019 0.002,-0.219242 -0.10339,-0.773224 -0.23469,-1.231069 -0.15978,-0.557112 -0.11626,-1.475285 0.13158,-2.776006 0.20368,-1.068959 0.44755,-2.896227 0.54192,-4.060597 0.0944,-1.164373 0.26197,-2.355165 0.37242,-2.646206 0.17542,-0.462235 0.25749,-0.396875 0.64885,0.516728 0.76877,1.794632 1.71281,6.528798 1.74358,8.743688 0.0259,1.864857 0.0622,2.014368 0.30526,1.256771 0.58728,-1.830737 0.98422,-0.732687 0.98943,2.737053 0.003,1.700649 -0.14966,2.864522 -0.51905,3.96875 -0.74159,2.216889 -0.66495,2.308099 0.42356,0.504092 1.1975,-1.984647 2.81885,-6.102897 3.69569,-9.387077 0.36827,-1.37935 0.72371,-2.562037 0.78987,-2.628194 0.46547,-0.465471 1.17203,2.200098 1.16455,4.393372 -0.0107,3.13881 -0.5187,5.402892 -1.76948,7.886483 -0.57957,1.150803 -0.87944,1.984373 -0.71388,1.984373 0.0793,0 0.79498,-1.369217 1.59044,-3.042707 0.79547,-1.673489 1.54595,-3.042708 1.66774,-3.042708 0.38471,0 0.52102,-2.715953 0.1547,-3.082276 -0.1821,-0.1821 -0.41152,-0.902536 -0.50981,-1.60097 -0.0983,-0.698432 -0.41232,-2.141585 -0.69784,-3.207007 -0.51818,-1.933583 -0.51813,-1.942539 0.0248,-4.894791 0.80255,-4.363863 0.77509,-4.266756 1.11137,-3.930476 0.34089,0.340887 0.88914,1.734135 1.42063,3.610161 0.54313,1.91708 0.4698,5.23223 -0.16019,7.241952 -0.28916,0.922472 -0.51821,1.874972 -0.50898,2.116667 0.0255,0.667654 0.45551,-0.543518 1.08714,-3.061904 0.32647,-1.301687 0.67406,-2.167795 0.84687,-2.11019 0.98293,0.327642 1.25381,5.360948 0.44468,8.262694 -0.80454,2.885382 -2.66004,5.982275 -2.66004,4.439788 0,-0.873181 -0.4782,0.05411 -0.90961,1.763857 -0.23745,0.94101 -0.59258,2.03339 -0.78918,2.4275 -0.52222,1.0468 0.10114,0.69509 0.89723,-0.50623 1.4413,-2.17497 2.4797,-3.995145 3.39291,-5.947315 1.11686,-2.387481 1.62847,-2.630466 1.67127,-0.79375 0.0645,2.769386 -0.44667,4.878195 -1.90636,7.864055 l -1.03834,2.12397 0.9246,-1.05834 c 0.50853,-0.58208 0.92638,-1.14763 0.92854,-1.25677 0.002,-0.10914 0.18253,-0.19844 0.40081,-0.19844 0.47755,0 0.47832,0.0333 0.10158,4.36563 -0.22458,2.58248 -0.40636,3.52982 -0.72951,3.80172 -1.00561,0.84613 1.04314,-0.003 2.62928,-1.0903 0.90213,-0.61815 2.0115,-1.37575 2.46527,-1.68355 0.45378,-0.30779 1.59896,-1.27899 2.54484,-2.15822 1.57737,-1.46622 1.7327,-1.55134 1.87566,-1.02788 0.13392,0.49038 0.1953,0.43397 0.43596,-0.40071 0.25937,-0.89953 3.91221,-5.505614 4.36911,-5.509268 0.54696,-0.0044 -0.20736,3.487628 -1.15877,5.364298 -0.3113,0.61402 -1.056,1.70555 -1.65491,2.42562 l -1.08892,1.30921 0.85989,-0.50636 c 0.47294,-0.2785 0.8599,-0.59975 0.8599,-0.7139 0,-0.11414 0.17859,-0.20754 0.39687,-0.20754 1.08138,0 -0.54362,3.58498 -2.24487,4.95253 -0.57955,0.46587 0.034,0.42548 1.31348,-0.0865 1.05645,-0.42271 1.33257,-0.76359 0.77032,-0.95101 -0.25857,-0.0862 0.52056,-2.85065 1.36439,-4.8411 0.20209,-0.47667 0.57695,-2.03123 1.65885,-6.879164 0.27731,-1.242653 0.71365,-2.06217 2.00868,-3.772649 0.90992,-1.20183 1.7578,-2.121249 1.88417,-2.043149 0.24787,0.153191 0.1087,2.108896 -0.29984,4.213553 -0.31067,1.600427 -1.43311,4.198359 -2.34028,5.416689 -0.63846,0.85743 -0.64329,0.88804 -0.0937,0.59389 0.31872,-0.17058 0.65268,-0.42856 0.74213,-0.5733 0.0895,-0.14474 0.34747,-0.26316 0.57335,-0.26316 0.32943,0 0.37595,0.19635 0.23508,0.99219 -0.30688,1.73367 -1.49316,3.78865 -3.1805,5.50954 -1.60352,1.6354 -1.53259,1.71156 0.44026,0.47273 2.01932,-1.26801 1.38853,0.62047 -1.14481,3.42739 -1.53508,1.70085 -1.8754,2.52652 -0.75226,1.82511 0.28244,-0.17639 0.69087,-0.32071 0.90761,-0.32071 0.21674,0 0.7839,-0.25079 1.26036,-0.55732 0.47645,-0.30652 0.65793,-0.48885 0.40327,-0.40518 -0.27195,0.0893 -0.4608,0.0191 -0.45764,-0.17028 0.008,-0.50025 1.75371,-4.99309 2.01299,-5.18174 0.12682,-0.0923 0.24558,-0.58449 0.26391,-1.09381 0.0183,-0.50933 0.31598,-2.05466 0.66146,-3.43408 l 0.62813,-2.50803 2.34549,-2.44974 c 1.29001,-1.347359 2.4649,-2.375937 2.61086,-2.285728 0.14966,0.09249 0.19988,0.639162 0.11518,1.253607 -0.27334,1.982701 -1.68602,4.882131 -3.52813,7.241221 -1.89218,2.4232 -1.83567,2.51842 0.38128,0.64247 0.76753,-0.64947 1.46556,-1.11081 1.55117,-1.02519 0.0856,0.0856 0.0136,0.74768 -0.15995,1.47127 -0.42677,1.77895 -2.7019,5.18539 -4.14057,6.19946 -1.39752,0.98506 -1.33519,1.21541 0.12703,0.46944 1.2212,-0.62301 1.88343,-0.69865 1.89886,-0.21689 0.006,0.1819 0.18665,0.006 0.40184,-0.39022 0.21518,-0.39653 0.64322,-0.85581 0.95119,-1.02063 0.43684,-0.23379 0.48143,-0.3482 0.20284,-0.52038 -0.28804,-0.17802 -0.16686,-0.79946 0.62646,-3.21271 0.54097,-1.6456 0.98324,-3.10339 0.98283,-3.23953 -5.3e-4,-0.13614 0.26402,-0.52936 0.58763,-0.87383 0.46551,-0.49552 0.51431,-0.67207 0.23368,-0.84551 -0.27613,-0.17066 -0.29296,-0.41662 -0.076,-1.11054 0.15328,-0.49024 0.48543,-2.190471 0.73811,-3.778299 0.43366,-2.725081 0.51991,-2.955163 1.53814,-4.103303 0.5933,-0.668989 1.66459,-1.962965 2.38064,-2.875503 0.71605,-0.91254 1.38981,-1.566365 1.49724,-1.452946 0.25721,0.271534 -0.17171,2.913756 -0.84955,5.233297 -0.29767,1.018646 -1.12726,2.912472 -1.84351,4.208499 -1.39153,2.517905 -1.53678,3.164695 -0.36599,1.629715 0.39577,-0.518883 0.88404,-0.943422 1.08505,-0.943422 0.46793,0 0.46826,-0.004 -0.19478,2.364372 -1.02742,3.66997 -3.17066,7.19883 -4.99379,8.22229 -0.21707,0.12186 -0.33575,0.28049 -0.26374,0.3525 0.072,0.072 0.64079,-0.21671 1.26394,-0.64161 1.36545,-0.93105 1.7362,-0.97455 1.51075,-0.17724 -0.68276,2.41449 -2.94171,5.1912 -5.0267,6.17882 l -1.32292,0.62664 -0.13229,-0.69904 c -0.12538,-0.66255 -0.15301,-0.67386 -0.52917,-0.21669 -0.21828,0.26529 -0.87312,0.83241 -1.4552,1.26027 l -1.05834,0.77791 1.19063,-0.1913 c 0.65484,-0.10521 1.39116,-0.29653 1.63625,-0.42515 0.24509,-0.12862 0.64382,-0.23386 0.88606,-0.23386 0.24223,0 0.84615,-0.19253 1.34203,-0.42784 0.72058,-0.34193 0.98032,-0.36251 1.29363,-0.10249 0.31688,0.26299 0.42373,0.24271 0.55746,-0.10579 0.091,-0.23713 1.19373,-0.94362 2.45053,-1.56998 1.25679,-0.62636 2.54755,-1.30445 2.86836,-1.50687 0.9444,-0.5959 0.98403,-0.11925 0.11619,1.39758 -0.94636,1.65405 -2.66143,3.43691 -4.07291,4.23387 -1.24095,0.70067 -1.25763,0.991936 -0.0568,0.991936 0.8798,0 0.91808,0.0354 0.64445,0.59531 -0.21923,0.44865 -0.0968,0.3888 0.49677,-0.24292 0.43322,-0.46102 1.03176,-0.968856 1.33008,-1.128506 0.32996,-0.17659 0.48197,-0.44776 0.38811,-0.69237 -0.0892,-0.23247 0.29072,-1.03993 0.90069,-1.91419 0.58024,-0.83166 1.44007,-2.25625 1.91075,-3.16576 0.47067,-0.9095 1.00463,-1.65364 1.18658,-1.65364 0.18195,0 1.39028,-0.641 2.68517,-1.42444 1.29489,-0.78344 2.39266,-1.32335 2.43948,-1.1998 0.0468,0.12355 -0.36989,1.15067 -0.92604,2.2825 -1.13586,2.31162 -3.57879,5.01291 -5.77368,6.38428 -1.54497,0.96531 -1.45296,1.03659 0.39688,0.30746 1.65339,-0.65171 1.58656,-0.65449 1.59196,0.0661 0.004,0.54749 0.0458,0.5308 0.51921,-0.20784 0.30318,-0.47302 0.92668,-0.94263 1.5169,-1.14249 0.55118,-0.18665 1.68707,-0.63573 2.52422,-0.99796 0.83714,-0.36223 1.64058,-0.58537 1.78541,-0.49586 0.38237,0.23632 -1.63007,3.0801 -3.39164,4.792746 -2.18631,2.12559 -6.39815,4.04849 -6.39815,2.92105 0,-0.19573 0.24916,-0.58135 0.55368,-0.85694 0.30452,-0.27558 0.67786,-0.74052 0.82966,-1.03319 0.27192,-0.5243 0.26669,-0.52413 -0.35524,0.0115 -1.62296,1.39772 -4.4222,2.76365 -5.66366,2.76365 -0.89501,0 -0.82673,-0.33491 0.33609,-1.64836 0.5457,-0.6164 0.73834,-0.94416 0.42809,-0.72837 -0.31024,0.2158 -1.09264,0.7704 -1.73866,1.23244 -0.64601,0.46205 -1.5828,0.95732 -2.08174,1.10062 l -0.90717,0.26053 0.84428,0.0239 c 0.46435,0.0131 0.9102,0.13053 0.99078,0.2609 0.0853,0.13808 0.56131,0.14071 1.14009,0.006 0.54648,-0.1269 1.57303,-0.23356 2.28123,-0.23704 1.18191,-0.006 1.27561,0.0396 1.14132,0.55315 -0.14267,0.54557 -0.13011,0.54425 0.50565,-0.053 0.41531,-0.39017 1.15345,-0.68301 2.03367,-0.80681 0.75995,-0.10689 1.94727,-0.27711 2.6385,-0.37827 1.8894,-0.27652 1.58995,0.43526 -0.8599,2.044 -0.80036,0.52557 -1.96122,1.10706 -2.57969,1.2922 -1.35263,0.40491 -1.50804,0.8128 -0.19702,0.51712 0.51009,-0.11505 0.99088,-0.10654 1.06841,0.0189 0.22459,0.3634 -1.78523,1.67595 -3.4141,2.22962 -1.42281,0.48362 -1.94655,0.92679 -1.09531,0.92679 0.21828,0 0.39688,0.15841 0.39688,0.35202 0,0.2859 0.24776,0.27598 1.31923,-0.0528 0.83823,-0.25722 1.2,-0.48026 0.99219,-0.61172 z m -2.57601,-15.825716 c 0,-0.14478 0.62367,-1.55529 1.38592,-3.13447 1.29808,-2.68926 1.48892,-2.94225 3.01119,-3.9917 0.8939,-0.61626 2.02641,-1.52368 2.51669,-2.01651 1.19545,-1.20165 1.6678,-1.19441 1.47032,0.0225 -0.31131,1.91838 -1.44599,3.80257 -3.64506,6.05283 -2.51286,2.57135 -4.73906,4.01223 -4.73906,3.0673 z m -23.17789,-3.8124 c -0.24379,-0.6353 0.14826,-2.87106 0.59011,-3.36522 0.33879,-0.3789 0.3264,-0.44445 -0.10538,-0.55736 -0.45941,-0.12014 -0.4713,-0.28229 -0.19447,-2.6523 0.27931,-2.39134 0.37255,-2.64774 1.7697,-4.8666 0.81117,-1.288246 1.67089,-2.729217 1.91048,-3.202159 0.78432,-1.548186 1.11035,-0.991439 0.96836,1.653645 -0.0923,1.720144 -0.79277,4.133444 -1.63823,5.644434 -1.06143,1.89695 -0.83778,2.27055 0.43176,0.72125 0.88997,-1.0861 1.05807,-1.19177 1.22417,-0.76962 0.1522,0.38683 0.19643,0.33189 0.21113,-0.2622 0.0119,-0.48122 0.43027,-1.24259 1.16308,-2.11667 0.62946,-0.750809 1.41148,-1.752064 1.73781,-2.225006 0.32633,-0.472943 0.70428,-0.859896 0.83989,-0.859896 0.71232,0 -0.0796,4.166592 -1.20578,6.344472 -0.52138,1.00823 -2.21035,2.91594 -2.5816,2.91594 -0.16212,0 -0.21409,-0.48004 -0.13141,-1.21363 0.16548,-1.46816 -0.0904,-1.25136 -0.7513,0.63656 -0.49927,1.42619 -2.00703,3.29153 -3.34887,4.1431 -0.66197,0.42011 -0.7392,0.42282 -0.88945,0.0313 z m 9.41956,-8.4826 c 0,-0.21306 0.13751,-1.59662 0.30557,-3.074564 0.30486,-2.681044 0.3095,-2.693109 2.03277,-5.286851 0.94997,-1.429819 1.8245,-2.53955 1.9434,-2.466065 0.31539,0.194927 0.26423,3.289446 -0.0813,4.918001 -0.39619,1.86722 -1.3511,3.70668 -2.66318,5.130119 -1.1248,1.22026 -1.53725,1.42937 -1.53725,0.77936 z m -4.01331,-4.838123 -0.0877,-3.373437 1.4126,-2.976563 c 0.77693,-1.637109 1.56868,-2.976562 1.75945,-2.976562 0.23943,0 0.41651,0.669544 0.57177,2.161863 0.13748,1.321331 0.35351,2.204296 0.55566,2.271006 0.40602,0.133993 0.43369,-2.058797 0.0621,-4.920959 -0.1831,-1.410237 -0.16726,-2.099717 0.0577,-2.513542 0.17053,-0.313634 0.69109,-1.577819 1.15681,-2.8093 0.46572,-1.231482 0.96937,-2.279928 1.11922,-2.329879 0.14986,-0.04995 0.41691,0.600438 0.59346,1.445308 1.05389,5.043257 0.63989,8.859625 -1.26361,11.648328 -0.97619,1.43015 -1.39499,1.566905 -1.39499,0.455517 0,-0.355213 -0.0952,-0.645842 -0.21166,-0.645842 -0.37087,0 -0.84667,0.618826 -0.84667,1.101169 0,1.062374 -1.33271,4.549891 -2.15669,5.643745 -0.48731,0.646922 -0.96561,1.179901 -1.06288,1.184401 -0.0973,0.005 -0.21633,-1.509862 -0.26458,-3.365253 z m -4.7141,3.108853 c -0.008,-0.0728 -0.0284,-1.800351 -0.0463,-3.839092 -0.0316,-3.613227 -0.0111,-3.756827 0.81295,-5.688542 0.46498,-1.089956 1.03569,-2.428224 1.26825,-2.973927 0.63905,-1.49956 1.01932,-1.237911 1.39529,0.96003 0.45082,2.635523 -0.0889,5.929072 -1.39752,8.527365 -0.81683,1.621877 -1.99569,3.369916 -2.03273,3.014166 z m 17.82011,-0.967702 c 0.16226,-0.815371 0.5858,-4.098808 0.83328,-6.459892 0.12719,-1.213434 0.38661,-1.798947 1.46535,-3.307291 0.72094,-1.008052 1.67887,-2.457902 2.12874,-3.221889 0.45408,-0.771126 0.94104,-1.312993 1.09464,-1.218063 0.37172,0.229738 0.0753,4.507296 -0.45567,6.57588 -0.72117,2.809531 -3.7513,8.097075 -4.75229,8.292714 -0.38024,0.07432 -0.43677,-0.04476 -0.31405,-0.661459 z m -3.83371,-2.934901 c -0.018,-0.10914 -0.006,-1.74625 0.0266,-3.638021 l 0.0592,-3.439583 1.46271,-2.84427 c 0.80449,-1.564349 1.54918,-2.844271 1.65486,-2.844271 0.33314,0 0.50951,3.591721 0.2621,5.337585 -0.40919,2.887543 -1.44229,5.670949 -2.60991,7.031685 -0.52769,0.614976 -0.79892,0.740794 -0.85555,0.396875 z m -24.91048,-1.564447 c -0.0726,-0.121819 -0.21911,-0.985422 -0.32552,-1.919118 -0.10642,-0.933696 -0.298,-2.062054 -0.42574,-2.507464 -0.17022,-0.593518 -0.06,-1.51819 0.41257,-3.461747 0.35466,-1.45855 0.78054,-3.663746 0.94641,-4.900433 0.16587,-1.236686 0.35337,-2.300311 0.41667,-2.36361 0.23444,-0.234444 0.59217,0.425392 1.16652,2.151682 0.90055,2.706751 0.68668,6.00905 -0.63914,9.868783 -1.00614,2.92907 -1.30867,3.539665 -1.55177,3.131907 z m 15.33548,-2.905908 c -0.10005,-0.100047 -0.18903,-0.608541 -0.19773,-1.129993 -0.009,-0.521448 -0.21901,-2.016765 -0.46734,-3.322926 l -0.45152,-2.374836 1.07197,-3.162466 c 0.58957,-1.739358 1.20627,-3.207237 1.37042,-3.261956 0.36647,-0.122155 1.17269,2.480244 1.33057,4.294928 0.18589,2.136638 -0.32122,5.163619 -1.19874,7.155408 -0.7889,1.790652 -1.09296,2.166511 -1.45763,1.801841 z m -5.03195,-1.263123 c -0.0793,-0.206616 -0.45497,-1.675572 -0.83486,-3.264347 l -0.69072,-2.888681 0.52059,-1.961174 c 0.28632,-1.078645 0.59975,-2.556486 0.69651,-3.28409 0.27892,-2.09745 0.39007,-2.372595 0.78677,-1.947733 0.68772,0.736547 1.50969,3.81993 1.64775,6.181066 0.12756,2.181688 0.0674,2.597441 -0.71846,4.960937 -0.83988,2.526102 -1.11729,2.960487 -1.40758,2.204022 z m -11.64705,-3.000227 c -0.0683,-0.110492 -0.32373,-0.973696 -0.56764,-1.918229 -0.24391,-0.944536 -0.86362,-2.729367 -1.37712,-3.966294 l -0.93364,-2.248959 0.0224,-4.230631 c 0.0123,-2.326849 0.12826,-4.265936 0.25771,-4.309084 0.46934,-0.156448 2.4415,3.33493 3.11497,5.514541 0.80602,2.608614 0.90224,4.71325 0.39534,8.64757 -0.31567,2.450139 -0.55033,3.096247 -0.91197,2.511086 z m -5.32132,-0.791294 c -0.23714,-0.958837 -2.14253,-5.699086 -2.898564,-7.211089 -0.448683,-0.897327 -0.640154,-1.877976 -0.774899,-3.96875 -0.09843,-1.527313 -0.253942,-3.372244 -0.34558,-4.099848 -0.166497,-1.321988 -0.16623,-1.322576 0.380426,-0.83661 0.884502,0.786307 2.959977,4.034107 3.624557,5.671878 0.97039,2.39141 1.29018,4.550214 1.11921,7.555478 -0.15401,2.707243 -0.33444,3.616545 -0.71761,3.616545 -0.11417,0 -0.28857,-0.327422 -0.38754,-0.727604 z m 25.26363,-5.423959 c -0.33219,-1.346067 -0.82214,-3.031445 -1.08876,-3.745282 -0.26663,-0.713838 -0.43607,-1.376699 -0.37654,-1.473023 0.22351,-0.361648 1.19509,-4.253278 1.19509,-4.7869 0,-0.968317 0.61479,-0.406789 1.48887,1.359866 1.06378,2.150102 1.51565,4.24312 1.37677,6.377059 -0.11563,1.776521 -1.16489,4.715676 -1.68348,4.715676 -0.16938,0 -0.57976,-1.101328 -0.91195,-2.447396 z m -15.85534,-0.132291 c -0.3473,-0.982266 -0.83854,-2.202656 -1.09167,-2.711979 -0.39652,-0.797859 -0.43664,-1.402146 -0.2899,-4.365625 l 0.17033,-3.439583 0.93497,1.455208 c 1.31717,2.050055 1.59952,2.788899 1.87054,4.894791 0.27056,2.102221 -0.15649,5.953125 -0.66018,5.953125 -0.16646,0 -0.5868,-0.803672 -0.93409,-1.785937 z m 5.12477,0.661458 c -0.17722,-0.829778 -1.05435,-3.089457 -1.90841,-4.916474 -0.34305,-0.733846 -0.36099,-1.103021 -0.10709,-2.202998 0.16777,-0.726781 0.30502,-2.016974 0.30502,-2.867093 0,-1.612903 0.17276,-2.382705 0.53471,-2.382705 0.42455,0 2.11229,3.417824 2.50009,5.062923 0.51166,2.17048 0.50773,4.037288 -0.0133,6.328074 -0.45676,2.008246 -1.00386,2.416479 -1.31102,0.978273 z m -13.43361,-5.018651 c -0.20312,-0.33206 -0.70418,-1.199057 -1.11347,-1.926661 -0.75583,-1.34365 -2.869413,-4.484399 -3.828128,-5.688542 -0.384368,-0.482761 -0.637024,-1.510966 -0.935228,-3.80597 -0.224724,-1.729481 -0.346358,-3.206742 -0.270298,-3.282799 0.07606,-0.07606 0.951402,0.701045 1.945209,1.726901 3.363855,3.472325 5.077135,7.25007 5.077135,11.194957 0,2.205508 -0.27443,2.7643 -0.87522,1.782114 z m -6.268534,-0.952354 c 0,-0.241012 -0.936381,-1.575676 -3.483009,-4.964475 -0.555635,-0.739386 -1.075161,-1.751417 -1.154499,-2.248958 -0.07934,-0.497544 -0.341558,-1.764626 -0.58271,-2.815738 -0.241149,-1.051113 -0.358151,-1.991419 -0.260001,-2.089568 0.224504,-0.224505 2.236116,1.575218 3.160816,2.827877 1.159737,1.571059 2.238915,3.729196 2.706587,5.412631 0.488384,1.757995 0.458933,3.860406 -0.05645,4.029887 -0.181901,0.05982 -0.33073,-0.0084 -0.33073,-0.151656 z m 16.005114,-2.601341 c -0.4098,-0.705861 -1.18466,-1.950233 -1.72188,-2.765272 -0.95682,-1.451604 -1.09336,-1.980861 -1.46064,-5.66186 -0.0436,-0.436563 -0.21207,-1.375096 -0.37447,-2.085629 -0.51518,-2.254057 0.1592,-2.030259 2.01292,0.668004 0.73561,1.070735 1.72523,2.958822 2.19917,4.195749 0.79357,2.071161 0.84765,2.404684 0.684,4.218744 -0.25077,2.77966 -0.43896,2.980667 -1.3391,1.430264 z M 88.422376,40.208489 c -1.746906,-1.657319 -3.431212,-3.149788 -3.742902,-3.3166 -0.311692,-0.166812 -0.569931,-0.507463 -0.573868,-0.757005 -0.0039,-0.249541 -0.361124,-1.283716 -0.79375,-2.298164 -0.857932,-2.011732 -0.915252,-2.25659 -0.528267,-2.25659 0.379479,0 3.532254,2.157948 4.693002,3.212172 1.500947,1.363204 3.275441,3.448957 3.569962,4.196161 0.359646,0.912426 1.00371,3.382507 1.00371,3.849367 0,0.211183 -0.101632,0.383966 -0.225845,0.383966 -0.124217,0 -1.655136,-1.355987 -3.402042,-3.013307 z m 62.098764,64.330491 c 0.001,-0.10914 -0.2869,-0.19844 -0.64004,-0.19844 -0.44808,0 -0.76093,0.23823 -1.03542,0.78846 l -0.39333,0.78846 1.03338,-0.59002 c 0.56835,-0.32452 1.03429,-0.67932 1.03541,-0.78846 z m 7.80795,-1.45909 c 1.28078,-1.20268 2.26883,-2.24655 2.19567,-2.31971 -0.0732,-0.0732 -0.89493,0.48077 -1.82616,1.23095 -0.93122,0.75019 -2.2257,1.60302 -2.87661,1.89518 -1.12237,0.50376 -1.15122,0.54312 -0.55881,0.76227 0.61655,0.22808 0.61818,0.23852 0.12515,0.80313 -0.49523,0.56713 -0.49475,0.56879 0.0563,0.19346 0.30569,-0.20822 1.60371,-1.3626 2.88449,-2.56528 z m -11.90695,2.0544 c 0.0912,-0.14754 -0.10674,-0.26279 -0.44741,-0.26053 -0.4915,0.003 -0.53334,0.0542 -0.21405,0.26053 0.49232,0.31816 0.46482,0.31816 0.66146,0 z m -7.27605,-0.68351 c 0,-0.46723 -0.56958,-0.38586 -0.73311,0.10473 -0.0576,0.17281 0.0838,0.3142 0.31419,0.3142 0.23041,0 0.41892,-0.18852 0.41892,-0.41893 z m 2.94315,-2.82222 c 0.30334,-0.56074 0.20532,-0.56959 -0.95231,-0.0859 -0.63351,0.26469 -0.89066,0.53555 -0.86256,0.90852 0.0385,0.51166 0.0683,0.51485 0.80221,0.0859 0.41921,-0.24503 0.87491,-0.65386 1.01266,-0.90852 z m 7.83311,-0.35829 c -0.0879,-0.0879 -0.31612,-0.0973 -0.50711,-0.0209 -0.21107,0.0845 -0.14838,0.14716 0.15985,0.15985 0.27891,0.0115 0.43518,-0.0511 0.34726,-0.13896 z M 69.651411,99.2958 c 1.492234,-0.30364 3.550973,-0.95081 4.629206,-1.45521 1.067998,-0.49961 2.050264,-0.90838 2.182812,-0.90838 0.132551,0 0.241001,-0.097 0.241001,-0.21558 0,-0.11857 0.4264,-0.41892 0.947558,-0.66744 1.379341,-0.65776 4.310729,-3.098976 5.859716,-4.879886 2.575719,-2.96137 5.025075,-8.7725 5.747097,-13.63507 1.117703,-7.527342 -0.120068,-16.053945 -3.174185,-21.865941 -1.226667,-2.33435 -3.843703,-5.500602 -5.617316,-6.79618 -3.388257,-2.475031 -9.890061,-5.216284 -13.618599,-5.741791 -1.531159,-0.215805 -1.174469,0.169979 0.65401,0.707353 2.121779,0.623573 6.125448,2.157785 7.481928,2.867086 4.864592,2.543685 8.846721,6.080897 10.510972,9.3366 1.643303,3.214719 2.873203,8.352914 3.264686,13.639003 0.335113,4.524931 -1.113171,12.28444 -3.030713,16.23772 -1.211304,2.49727 -4.028082,6.34203 -5.495152,7.50059 -1.494901,1.180546 -4.809617,3.138476 -6.175835,3.647936 -0.654844,0.24419 -1.42875,0.5446 -1.719792,0.66759 -2.389693,1.00983 -6.969323,1.67406 -10.31875,1.49665 l -2.645833,-0.14015 1.5875,0.34712 c 2.41558,0.52819 5.65617,0.47523 8.689689,-0.14202 z m -38.97277,-3.62034 c 1.356011,-1.474716 1.484997,-1.824056 1.83175,-4.960956 0.542867,-4.91105 -1.587389,-10.93282 -5.150752,-14.56006 -2.084251,-2.121618 -2.787804,-2.505565 -4.591254,-2.505565 -0.92693,0 -1.495148,0.174177 -2.154017,0.660275 -1.196557,0.88279 -1.315738,1.11488 -1.320469,2.57148 -0.0036,1.10741 0.515846,2.4509 1.56367,4.04429 0.2628,0.39962 0.754903,1.95772 1.086347,3.43958 0.162741,0.7276 0.282648,3.08023 0.266458,5.22806 -0.02803,3.71911 0.0022,3.95913 0.634596,5.038226 0.717832,1.22489 1.935058,2.25875 2.99224,2.54148 0.364717,0.0975 1.323738,0.10464 2.131158,0.0158 1.34395,-0.14792 1.57304,-0.27578 2.710273,-1.51257 z m 104.028959,0.0508 c 0.0812,-0.0812 0.0875,-0.37757 0.014,-0.65863 -0.1281,-0.48983 -0.16528,-0.49232 -0.89727,-0.0599 -0.42,0.2481 -0.76363,0.54448 -0.76363,0.65863 0,0.23499 1.42017,0.28666 1.64692,0.0599 z M 138.6618,95.3 c 0.68612,-0.20557 0.91908,-0.37928 0.69465,-0.51798 -0.26462,-0.16354 -0.22971,-0.397136 0.16135,-1.079766 l 0.49902,-0.87109 -0.89838,0.84493 c -0.49411,0.46471 -1.43417,1.087166 -2.08901,1.383246 l -1.19063,0.53833 0.89535,0.006 c 0.49244,0.003 1.35988,-0.13337 1.92765,-0.30348 z M 74.372798,93.337574 c 2.664827,-1.34585 4.882356,-3.19477 7.271334,-6.06266 1.780659,-2.13762 2.59774,-3.63485 3.494389,-6.4032 1.230649,-3.79954 1.453909,-5.54265 1.259086,-9.830299 -0.342484,-7.537328 -2.413717,-13.2667 -6.156103,-17.028795 -1.532699,-1.540771 -2.379519,-2.039731 -1.587023,-0.935098 2.416283,3.367982 4.032594,6.439979 4.907105,9.326562 1.583341,5.226294 1.515472,14.57763 -0.139689,19.24727 -0.836147,2.35899 -2.43849,5.08899 -4.018137,6.84594 -1.412727,1.57129 -5.019932,4.42906 -6.601934,5.23031 -0.618463,0.31324 -1.124479,0.62369 -1.124479,0.689886 0,0.17079 1.059516,-0.253696 2.695451,-1.079916 z m -28.624617,-2.08493 c 0,-0.12153 -0.188479,-0.57328 -1.328418,-3.18397 -0.926954,-2.12292 -1.85456,-2.79889 -2.603106,-1.89694 -0.220969,0.26625 -0.132455,0.56847 0.363297,1.24042 0.360495,0.48862 0.749202,0.95529 0.863796,1.03704 0.114591,0.0817 0.661046,0.77372 1.214342,1.5377 0.858986,1.18608 1.490089,1.72217 1.490089,1.26575 z m 63.659309,-5.77836 c -0.42171,-0.31934 -1.37421,-1.0939 -2.11667,-1.72125 -0.74246,-0.62736 -2.09407,-1.49664 -3.00358,-1.93175 -0.9095,-0.43511 -1.65726,-0.93385 -1.66169,-1.10832 -0.004,-0.17447 -0.1294,-0.10885 -0.27773,0.14581 -0.14832,0.25466 -0.49487,0.46302 -0.77009,0.46302 -0.27522,0 -0.58041,0.12945 -0.67819,0.28766 -0.1153,0.18656 0.0884,0.26333 0.5797,0.21843 1.8092,-0.16535 3.49784,0.57899 6.31373,2.78303 1.01865,0.79731 1.97115,1.44837 2.11667,1.44682 0.14552,-0.002 -0.0805,-0.26411 -0.50215,-0.58345 z m 17.289,-0.42839 c 0.54893,-0.42188 0.60494,-0.59183 0.36869,-1.11859 l -0.27858,-0.62113 -0.56614,0.92604 c -0.87174,1.42592 -0.70079,1.71814 0.47603,0.81368 z m -70.100393,-5.80897 c 0,-0.12803 -0.684609,-0.28319 -1.521354,-0.34481 -1.862783,-0.13717 -4.113517,-1.1334 -5.605132,-2.48099 -1.701091,-1.536833 -2.331249,-2.985175 -2.640793,-6.069537 -0.162216,-1.616369 -0.21469,-1.751899 -0.41231,-1.064892 -0.284166,0.987882 0.185719,3.851727 0.908714,5.538406 0.776676,1.811913 2.556785,3.400283 4.566179,4.074333 1.667108,0.55923 4.704696,0.78359 4.704696,0.34749 z m 1.756921,-5.341435 c 3.48312,-1.68615 4.405836,-6.424626 1.79175,-9.20128 l -0.910577,-0.967205 0.823601,1.5875 c 0.713726,1.375722 0.804637,1.776637 0.681479,3.005283 -0.193215,1.927513 -1.099786,3.231565 -2.854441,4.105947 -3.974553,1.980604 -8.450186,-0.660935 -8.108149,-4.785466 0.135303,-1.631572 -0.286517,-1.52791 -0.508206,0.124891 -0.305411,2.277028 1.142706,4.602305 3.644871,5.852652 2.008949,1.003885 3.755369,1.093034 5.439672,0.277678 z M 56.728389,71.72231 c 1.829202,-1.028295 2.504069,-3.380573 1.54795,-5.395447 -0.521695,-1.099389 -1.134544,-1.533662 -2.783755,-1.972606 -2.328402,-0.619712 -4.453657,0.660381 -4.81148,2.898074 -0.0933,0.583493 -0.06087,1.338683 0.07207,1.678201 0.237678,0.606994 0.246925,0.602994 0.553543,-0.239389 0.241377,-0.663144 0.547452,-0.927293 1.354741,-1.169162 0.923874,-0.276799 1.124897,-0.251476 1.761169,0.221861 0.567198,0.421949 0.735008,0.787897 0.797902,1.740016 0.06641,1.005324 -0.02032,1.275707 -0.521894,1.627021 -0.330845,0.231733 -0.961995,0.431003 -1.402561,0.442822 l -0.801023,0.02149 0.79375,0.36345 c 1.152818,0.527867 2.237057,0.459674 3.439583,-0.216331 z M 152.38177,56.198539 c -1.08018,-2.018334 -6.47669,-8.317203 -9.53096,-11.124659 -5.23469,-4.811668 -13.11319,-10.30848 -20.37346,-14.214527 -2.90415,-1.562442 -9.97349,-4.342486 -12.96459,-5.098374 -0.65484,-0.165487 -1.78836,-0.469156 -2.51893,-0.674819 -1.74616,-0.491565 -5.25641,-1.155353 -5.39652,-1.020483 -0.21428,0.206266 0.13937,0.33723 2.49374,0.923497 9.64333,2.401302 17.8136,6.045904 27.11755,12.096618 2.505,1.6291 8.22784,5.812816 8.73124,6.38303 0.0728,0.08242 0.96573,0.881015 1.98438,1.774661 1.50168,1.317405 4.24351,3.836897 5.22182,4.798382 0.28587,0.280946 3.66344,4.52618 4.52029,5.681493 0.79153,1.067255 1.16509,1.315361 0.71544,0.475181 z M 81.739094,43.560114 c -0.665427,-2.549319 -2.584202,-6.877942 -3.961681,-8.937276 -0.389352,-0.582083 -0.675642,-1.236927 -0.636201,-1.455208 0.03944,-0.218281 -0.280823,-0.673821 -0.7117,-1.012311 -0.606216,-0.476231 -0.783415,-0.524647 -0.783415,-0.214052 0,0.22076 0.109408,0.469001 0.243128,0.551645 0.39416,0.243604 4.254788,7.441815 4.254788,7.933128 0,0.102071 -0.26789,0.111691 -0.595312,0.02138 -0.513636,-0.141674 -0.496641,-0.100113 0.123875,0.302929 0.689171,0.447633 1.543942,2.039874 1.937036,3.608247 0.101999,0.406959 0.247113,0.678265 0.322479,0.602901 0.07536,-0.07536 -0.01148,-0.705987 -0.192997,-1.401383 z m 51.989096,-11.44102 c -0.16584,-0.268347 -2.02461,-0.857557 -2.18845,-0.693718 -0.0525,0.05252 0.41704,0.272402 1.04346,0.488634 0.62641,0.216233 1.17573,0.408162 1.2207,0.42651 0.045,0.01835 0.0109,-0.08129 -0.0757,-0.221426 z m -5.16543,-1.449391 c 0,-0.06417 -0.11906,-0.190261 -0.26458,-0.280198 -0.14552,-0.08994 -0.26458,-0.03743 -0.26458,0.116677 0,0.154109 0.11906,0.280198 0.26458,0.280198 0.14552,0 0.26458,-0.0525 0.26458,-0.116677 z m -2.51354,-0.677073 c -0.43656,-0.111086 -1.03187,-0.207693 -1.32292,-0.214683 l -0.52916,-0.01271 0.52916,0.227391 c 0.29105,0.125065 0.88636,0.221672 1.32292,0.214683 l 0.79375,-0.01271 z m 14.34813,-0.424436 c -0.0879,-0.08792 -0.31612,-0.09732 -0.50711,-0.02089 -0.21107,0.08446 -0.14838,0.147156 0.15985,0.159852 0.27891,0.01149 0.43518,-0.05105 0.34726,-0.138964 z m -1.25126,-0.369314 c -0.21828,-0.141064 -0.57546,-0.25648 -0.79375,-0.25648 -0.35277,0 -0.35277,0.0285 0,0.25648 0.21829,0.141064 0.57547,0.25648 0.79375,0.25648 0.35278,0 0.35278,-0.0285 0,-0.25648 z m -1.3664,-0.396265 c -0.30027,-0.300268 -8.25134,-2.106752 -10.40755,-2.364597 -0.58209,-0.06961 -1.9513,-0.245567 -3.04271,-0.391021 -2.53177,-0.337415 -9.1809,-0.365831 -9.38221,-0.0401 -0.19852,0.321201 1.25224,0.487997 5.81033,0.668027 4.08179,0.161216 10.14267,0.916329 13.62604,1.697641 2.23992,0.502408 3.64659,0.680533 3.3961,0.430046 z m -2.88898,-5.005064 c -0.19457,-0.193551 -3.98675,-0.715179 -7.1217,-0.979614 -3.95758,-0.333826 -15.44917,-0.05723 -18.71927,0.450561 -1.53518,0.238388 -0.9785,0.698666 0.66146,0.546907 0.83675,-0.07743 4.14073,-0.273726 7.34219,-0.436212 5.57234,-0.282818 11.34487,-0.105586 16.27187,0.49959 1.40232,0.172244 1.79955,0.151632 1.56545,-0.08123 z m -27.1625,-2.649712 c 2.27222,-0.969385 11.424,-2.447854 16.81517,-2.716487 1.79116,-0.08925 3.12793,-0.241832 2.9706,-0.339068 -0.64918,-0.401219 -9.63343,0.155083 -12.84184,0.795164 -5.44905,1.087089 -11.15675,2.554157 -12.28383,3.157354 -1.91553,1.025163 2.62039,0.263247 5.3399,-0.896963 z m 47.0283,161.013271 c 0,-0.16372 0.24311,-0.29766 0.54023,-0.29766 0.93525,0 1.70235,-0.96006 1.67263,-2.09339 -0.0304,-1.16146 -1.6307,-4.68094 -2.47628,-5.44618 -0.4802,-0.43458 -0.59844,-0.45258 -0.80701,-0.12283 -0.13441,0.2125 -0.24621,0.65807 -0.24843,0.99017 -0.002,0.33209 -0.18265,1.03124 -0.40093,1.55366 -0.55772,1.33481 -0.49794,2.96518 0.14754,4.02393 0.29834,0.48935 0.48441,0.94776 0.41349,1.01868 -0.28835,0.28835 -0.64,-0.24939 -1.08199,-1.65459 -0.40166,-1.277 -0.42328,-1.70961 -0.15578,-3.11726 0.39104,-2.05779 1.14288,-4.67719 1.34247,-4.67719 0.0834,0 0.57315,0.56555 1.0884,1.25677 2.30745,3.09549 3.03753,5.01146 2.58875,6.79372 -0.16535,0.65666 -0.44758,1.31588 -0.62718,1.46494 -0.51282,0.4256 -1.99591,0.65389 -1.99591,0.30723 z m -86.002602,-4.94356 c -0.280173,-0.33759 -0.279879,-0.7343 0.0016,-2.18281 0.189211,-0.97364 0.502444,-2.24804 0.696074,-2.832 0.755515,-2.27854 1.673092,-9.38929 1.211604,-9.38929 -0.144381,0 -0.576075,0.82059 -0.959321,1.82353 -0.481124,1.25908 -1.095994,2.23987 -1.986434,3.16858 -1.227881,1.28065 -1.328713,1.33143 -2.106041,1.06045 -0.449027,-0.15653 -1.041191,-0.57036 -1.315921,-0.91962 -0.629557,-0.80035 -0.918316,-0.79786 -1.556496,0.0135 -0.376891,0.47914 -0.805238,0.6659 -1.640308,0.71518 -0.949727,0.056 -1.230326,-0.0497 -1.757124,-0.66215 -0.3448,-0.40085 -0.702083,-1.19893 -0.793962,-1.7735 -0.09184,-0.57458 -0.246256,-1.04468 -0.343101,-1.04468 -0.09685,0 -0.528114,0.59189 -0.958371,1.31531 -0.511482,0.85999 -1.161259,1.51841 -1.877028,1.902 -1.046433,0.5608 -1.12508,0.56681 -1.782252,0.13621 -1.397675,-0.91579 -1.610688,-1.58803 -1.753217,-5.53285 -0.142748,-3.9509 -0.224578,-4.15859 -1.641657,-4.16662 -0.807236,-0.005 -0.76413,-0.15322 -1.259404,4.34285 -0.337724,3.06585 -0.836295,4.07138 -2.503024,5.04815 -2.123818,1.24464 -4.65963,0.70202 -6.794027,-1.45382 -2.363078,-2.38681 -3.00379,-5.86729 -1.247304,-6.7756 0.748493,-0.38706 0.798383,-0.37183 1.68442,0.51421 1.066943,1.06694 1.137012,1.73659 0.339309,3.24273 l -0.575238,1.08611 0.571574,0.8027 c 1.07234,1.50596 2.607723,1.27687 3.719018,-0.5549 0.717449,-1.18259 2.806687,-10.17231 2.629828,-11.3158 -0.07741,-0.50054 -0.140692,-0.48399 -0.961342,0.25142 -1.196983,1.07266 -2.467462,1.28653 -3.57528,0.60186 -1.64183,-1.01471 -2.516809,-3.61196 -1.730894,-5.13792 0.576096,-1.11856 1.370156,-1.76854 2.160569,-1.76854 0.834573,0 0.823122,-0.0805 0.285295,2.00411 -0.09254,0.35866 0.103391,0.84008 0.56533,1.38906 0.86582,1.02897 1.99227,1.12537 2.854748,0.24431 0.663261,-0.67755 2.263088,-2.6155 2.572645,-3.11638 0.261268,-0.42273 1.086228,-0.12869 0.922411,0.32878 -0.357137,0.99733 -0.779573,6.09087 -0.620733,7.48449 0.08615,0.75587 0.123975,0.72227 0.792546,-0.70409 1.311275,-2.79754 2.935528,-5.32491 4.161157,-6.47485 1.033463,-0.96964 1.391735,-1.14716 2.322889,-1.15095 0.9145,-0.004 1.220514,0.13761 1.8069,0.83448 0.585772,0.69616 0.67669,1.00017 0.534104,1.78594 -0.09451,0.52084 -0.385255,1.16544 -0.646094,1.43246 -0.407951,0.41762 -0.618048,0.44557 -1.50277,0.19992 -0.565685,-0.15707 -1.287272,-0.28624 -1.603528,-0.28705 -0.778992,-0.002 -2.113151,1.16617 -2.743883,2.40251 -0.736365,1.4434 -0.676135,1.82934 0.285493,1.82934 1.137177,0 2.048545,0.68974 2.395755,1.81314 0.164036,0.53075 0.374613,2.27468 0.467947,3.8754 0.159409,2.73393 0.204912,2.91543 0.750374,2.99305 0.486162,0.0692 0.628253,-0.10308 0.872988,-1.05833 0.515363,-2.01158 1.859063,-5.08454 2.594848,-5.93426 1.044469,-1.20621 2.311834,-1.59302 3.539188,-1.0802 1.138719,0.47579 1.275842,0.39051 1.275842,-0.79349 0,-1.14469 0.611666,-1.40152 1.453764,-0.61041 1.262337,1.1859 1.441309,1.97636 1.138523,5.02844 -0.427942,4.31365 -0.41429,5.66445 0.05818,5.75716 0.488149,0.0958 1.162376,-0.99802 1.873756,-3.03978 1.706758,-4.89864 2.077672,-6.0916 2.083683,-6.70171 0.0037,-0.37237 0.174514,-0.90657 0.379651,-1.18711 0.367768,-0.50295 0.381106,-0.50274 0.954598,0.0156 1.172321,1.05952 1.714482,2.10602 1.847424,3.56596 l 0.132292,1.45281 0.663096,-1.29318 c 0.816017,-1.59142 1.824537,-2.40417 2.708095,-2.18241 1.08354,0.27195 1.265285,1.14072 1.081918,5.17169 -0.09189,2.02003 -0.08079,3.89462 0.02466,4.16574 0.180343,0.46365 0.221359,0.45666 0.689909,-0.11766 0.614246,-0.75289 1.84259,-4.69724 1.887054,-6.05953 0.01799,-0.55152 -0.187511,-1.5564 -0.45669,-2.23305 -0.40227,-1.01122 -0.433604,-1.35279 -0.175969,-1.91823 0.641991,-1.40902 2.441459,-0.39817 2.441459,1.37148 0,0.80336 0.266946,0.86054 1.375989,0.29475 1.370629,-0.69924 2.104811,-0.5784 2.361912,0.38877 0.110905,0.41721 0.09294,2.37957 -0.03992,4.36081 -0.232582,3.46819 -0.09685,4.5218 0.497684,3.86322 0.565173,-0.62604 2.705049,-6.18775 3.081205,-8.00829 0.208515,-1.00918 0.701199,-1.29361 1.56165,-0.90156 1.339509,0.61032 1.689365,2.65333 1.39087,8.12207 -0.02999,0.54939 0.09205,0.81357 0.404809,0.87635 0.513631,0.1031 1.357588,-1.56735 2.310543,-4.57325 0.322937,-1.01865 0.685176,-2.09021 0.804968,-2.38125 0.4606,-1.11902 1.331553,-6.56055 1.331553,-8.3192 0,-0.95748 0.0688,-1.07352 0.636524,-1.07352 0.464579,0 0.857536,0.33367 1.45468,1.23519 l 0.81815,1.23518 -0.14067,3.32888 c -0.0774,1.83088 -0.20566,3.6563 -0.28508,4.05648 -0.17032,0.85821 0.30727,0.99189 0.57133,0.15992 0.3362,-1.05926 2.24431,-2.8719 3.02317,-2.8719 1.4579,0 2.3768,2.21282 1.41311,3.40293 -0.49428,0.61041 -0.49961,0.61088 -1.50519,0.13135 -0.98332,-0.46891 -1.01867,-0.46822 -1.38092,0.0272 -0.47357,0.64764 -0.47138,0.93645 0.007,0.93645 0.61973,0 1.46527,1.45123 1.64404,2.82174 0.0918,0.70362 0.28198,1.42563 0.42268,1.60447 0.37137,0.47205 1.1177,-0.008 1.51898,-0.97651 0.33866,-0.8176 0.64411,-1.00223 0.91989,-0.55601 0.22745,0.36802 -0.77298,2.82237 -1.58368,3.88525 -1.24388,1.63081 -2.70015,1.74779 -3.39137,0.27243 -0.21482,-0.45851 -0.47478,-1.63733 -0.57769,-2.6196 -0.10291,-0.98227 -0.29812,-1.78594 -0.43381,-1.78594 -0.2953,0 -1.2651,2.05865 -1.27334,2.703 -0.009,0.71062 -0.80075,2.19754 -1.353917,2.54299 -0.413877,0.25848 -0.596799,0.21744 -1.049702,-0.23546 -0.506799,-0.5068 -0.53517,-0.74317 -0.37333,-3.11023 0.09633,-1.40897 0.193699,-2.66594 0.216371,-2.79327 0.02267,-0.12733 -0.0861,-0.27891 -0.24171,-0.33684 -0.155612,-0.0579 -0.678863,0.93921 -1.162778,2.21588 -1.45805,3.84665 -3.483075,5.29754 -5.056608,3.62298 -0.553172,-0.58869 -0.654269,-0.98916 -0.734729,-2.91041 -0.05131,-1.22529 -0.190569,-2.2278 -0.309462,-2.2278 -0.118893,0 -0.419235,0.61137 -0.66743,1.35861 -0.647483,1.9494 -1.875922,3.79771 -2.885371,4.34133 -0.84935,0.4574 -0.892244,0.45496 -1.664332,-0.0948 -0.43588,-0.31038 -0.944005,-0.93006 -1.129163,-1.37707 -0.433908,-1.04755 -0.201737,-3.57967 0.518835,-5.65855 0.66249,-1.91131 0.662691,-1.92572 0.03168,-2.26342 -0.904195,-0.48391 -1.261665,-0.0294 -2.137442,2.71773 -1.920732,6.0249 -4.068617,8.1927 -5.927997,5.98296 -0.561753,-0.66761 -0.684977,-1.08561 -0.684977,-2.32359 0,-0.83025 0.168386,-2.15869 0.374192,-2.95208 0.205804,-0.79341 0.317841,-1.53373 0.248968,-1.64517 -0.219536,-0.35521 -0.791255,-0.2186 -1.261975,0.30154 -0.932067,1.02992 -1.38543,3.25274 -2.001772,9.8146 -0.380468,4.05065 -0.728324,4.95367 -2.188906,5.6823 -1.028927,0.5133 -1.631143,0.51054 -2.062696,-0.009 z m -5.594692,-12.22129 c 0.754521,-1.06862 1.520905,-4.85423 1.130433,-5.58384 -0.844421,-1.57781 -2.150558,0.14949 -2.50494,3.31265 -0.312148,2.7862 0.298476,3.79517 1.374507,2.27119 z m 90.324624,-3.14002 c -0.34605,-2.73988 -1.19354,-6.33352 -2.48851,-10.55217 -0.71957,-2.34417 -1.11647,-3.94728 -2.06343,-8.33437 -0.3541,-1.64049 -0.64379,-8.14946 -0.4166,-9.36048 0.15482,-0.82528 0.28292,-0.97731 0.76551,-0.90855 0.54275,0.0773 0.5829,0.2339 0.63179,2.46382 0.0827,3.77395 0.93215,7.8166 2.33486,11.1125 1.72135,4.04462 3.83197,10.08599 3.83197,10.96855 0,0.28028 0.11727,0.58207 0.2606,0.67065 0.47697,0.29479 -0.67256,-4.89511 -1.69896,-7.67045 -0.37673,-1.01864 -0.9885,-2.74505 -1.35951,-3.83646 -0.371,-1.0914 -0.78325,-2.2225 -0.91611,-2.51354 -0.89884,-1.96901 -2.11187,-10.18055 -1.61594,-10.93897 0.13784,-0.21078 0.78556,-0.37243 1.59032,-0.39687 0.74678,-0.0227 1.3579,-0.13054 1.35806,-0.23968 1.6e-4,-0.10914 0.15995,-0.19844 0.35509,-0.19844 0.19514,0 0.74487,0.80368 1.22163,1.78594 1.02986,2.12184 3.03618,5.21708 5.27366,8.13594 1.51905,1.98164 3.43103,5.29907 3.18273,5.52229 -0.061,0.0549 -0.79492,0.0405 -1.6309,-0.0319 l -1.51995,-0.13169 -2.01276,-4.00225 c -1.10701,-2.20123 -2.26133,-4.41004 -2.56514,-4.90845 -0.30381,-0.49841 -1.00239,-1.98669 -1.55239,-3.30729 -1.16545,-2.79836 -1.30844,-2.61801 -0.3273,0.41283 0.64757,2.00042 3.44501,7.8205 4.17901,8.69446 0.18379,0.21883 0.6617,0.97148 1.06203,1.67255 l 0.72788,1.27469 -0.72603,3.02479 c -0.39931,1.66364 -0.82578,3.0248 -0.94769,3.0248 -0.12192,0 -0.22459,0.38695 -0.22817,0.8599 -0.007,0.87718 -0.86404,3.74076 -1.27881,4.27102 -0.12607,0.16117 -0.30424,0.60774 -0.39594,0.99238 -0.28103,1.17881 -2.138,4.98684 -2.4324,4.98806 -0.15246,5.3e-4 -0.42183,-1.14398 -0.5986,-2.54357 z m 3.91414,-11.51765 c -0.24583,-0.93178 -1.60418,-4.42949 -2.9131,-7.50118 -0.50597,-1.18738 -1.35117,-3.82174 -1.82509,-5.68854 -0.43469,-1.71228 -0.50688,-1.8445 -0.52644,-0.96423 -0.042,1.88853 1.23337,5.73522 3.74078,11.28298 0.49328,1.0914 1.05818,2.49098 1.25533,3.11017 0.46148,1.4494 0.66598,1.26725 0.26852,-0.2392 z m 27.12416,9.24718 c -3.5199,-1.21135 -8.75301,-3.85181 -11.65646,-5.88146 -0.95169,-0.66529 -1.80168,-1.20961 -1.88887,-1.20961 -0.0872,0 -0.69913,-0.44648 -1.3599,-0.99219 -1.21677,-1.00488 -2.27927,-1.70919 -4.07837,-2.70345 -0.77603,-0.42887 -1.16691,-0.93408 -1.79581,-2.32109 -0.97007,-2.13944 -1.90252,-3.63441 -4.33332,-6.94745 -2.47473,-3.37292 -4.38832,-6.56496 -4.38832,-7.32013 0,-1.04265 0.95157,-0.77138 1.77747,0.50671 0.9647,1.49287 3.31976,4.47826 4.9648,6.29362 0.73014,0.80575 1.92284,2.16159 2.65044,3.01299 0.72761,0.8514 1.4442,1.68044 1.59243,1.84231 0.86658,0.9463 2.88187,3.86371 3.60102,5.21298 0.46114,0.86518 0.89146,1.52003 0.95627,1.45522 0.16569,-0.16569 -1.598,-3.33128 -3.25635,-5.84473 -1.42782,-2.16404 -2.52542,-3.51789 -5.68438,-7.01146 -3.19109,-3.5291 -5.0142,-5.83142 -5.0142,-6.33222 0,-0.31304 0.26153,-0.55522 0.72528,-0.67161 0.58383,-0.14653 0.80221,-0.0618 1.11981,0.43434 0.217,0.339 2.31172,2.52137 4.65494,4.8497 5.73066,5.69427 9.05261,10.01709 12.19553,15.86992 0.62664,1.16696 1.14134,2.02299 1.14377,1.90229 0.009,-0.43426 -1.41532,-3.7703 -2.02177,-4.73622 -0.3408,-0.54281 -0.61964,-1.06019 -0.61964,-1.14973 0,-0.0895 -0.66082,-1.15595 -1.4685,-2.36981 -1.70976,-2.56962 -4.17925,-5.44209 -8.18136,-9.51645 -3.52127,-3.58483 -5.18502,-5.59779 -5.00799,-6.05913 0.12515,-0.32612 1.2072,-0.95233 1.64557,-0.95233 0.21645,0 8.0109,7.68507 10.60054,10.45178 2.72425,2.91053 5.4219,7.40472 8.0837,13.46716 1.11146,2.53145 1.03404,1.53787 -0.12356,-1.58551 -1.17295,-3.16482 -3.08508,-7.10184 -4.55026,-9.36884 -1.21975,-1.88727 -4.26224,-5.20392 -6.64828,-7.24735 -2.49901,-2.14017 -5.93826,-5.66176 -6.13511,-6.28199 -0.17227,-0.54277 0.41149,-1.28733 1.00931,-1.28733 0.2059,0 0.87347,0.59192 1.48349,1.31537 0.61002,0.72345 2.68249,2.67678 4.60548,4.34073 4.16647,3.60522 5.1994,4.6667 7.18436,7.38299 2.43073,3.32629 4.79766,8.08045 6.60104,13.25868 0.0959,0.27549 0.23961,0.43572 0.31926,0.35607 0.2138,-0.21381 -0.83502,-3.57056 -2.03018,-6.49757 -2.10406,-5.15295 -4.52006,-8.47035 -9.86214,-13.54169 -3.76031,-3.56973 -7.57954,-7.43521 -7.57954,-7.67132 0,-0.10129 0.23333,-0.39532 0.51851,-0.6534 0.76148,-0.68914 1.66452,-0.33865 2.51989,0.978 0.40341,0.62096 2.96597,3.33167 5.69457,6.02381 2.7286,2.69213 5.63968,5.82374 6.46907,6.95912 1.76666,2.41847 3.5473,6.09297 4.35148,8.97968 0.75766,2.71971 1.53141,5.64384 1.83842,6.94765 l 0.24921,1.05834 0.0181,-0.92604 c 0.0737,-3.76687 -2.91699,-12.34274 -5.81055,-16.662 -1.70396,-2.54351 -2.17825,-3.05508 -7.11997,-7.67967 -1.94375,-1.81901 -4.23853,-4.19325 -5.0995,-5.27609 -1.38863,-1.74649 -1.54892,-2.07032 -1.41949,-2.86788 0.0802,-0.49449 0.29007,-1.07279 0.46628,-1.28511 0.2685,-0.32352 0.43972,-0.18045 1.05736,0.8835 0.40534,0.69825 0.85226,1.51894 0.99316,1.82375 0.1409,0.30482 1.36148,1.6145 2.7124,2.91042 4.77043,4.57622 7.45896,7.40251 8.65927,9.10302 0.66768,0.94592 1.27755,1.77938 1.35527,1.85214 0.65152,0.60996 3.35207,6.78609 3.99132,9.12813 0.86823,3.18091 1.06632,4.29182 1.20304,6.74687 0.15366,2.75898 -0.26379,5.57932 -0.84655,5.71953 -0.13076,0.0315 -0.59494,-0.0657 -1.0315,-0.21596 z M 90.823031,154.2145 c -0.208664,-0.54377 0.41145,-1.97783 1.317836,-3.04758 0.60116,-0.70952 0.840058,-0.83252 1.190625,-0.61302 0.24121,0.15103 0.474364,0.68972 0.518123,1.19709 0.06813,0.78989 -0.0746,1.06175 -0.992949,1.89143 -1.14404,1.03357 -1.787126,1.21448 -2.033635,0.57208 z m -7.456393,-1.07896 c -1.745104,-1.49374 -1.428723,-2.31085 0.554988,-1.43336 1.102873,0.48785 1.259617,0.49669 2.157071,0.12172 1.663713,-0.69515 2.034519,0.18835 0.620935,1.47946 -1.136582,1.03811 -1.973361,0.99598 -3.332994,-0.16782 z M 58.11253,142.67812 c -2.993141,-0.46291 -5.078891,-3.08645 -5.049001,-6.35084 0.02286,-2.49621 1.15547,-4.11837 3.629091,-5.19768 1.707801,-0.74517 5.387006,-0.15331 6.744665,1.08498 1.145223,1.04453 2.149473,3.11251 2.152164,4.43179 0.0051,2.51386 -1.124159,4.38135 -3.250481,5.3753 -1.657019,0.77458 -2.557907,0.9145 -4.226438,0.65645 z m 3.287273,-2.55941 c 0.941877,-0.54775 1.810877,-2.15726 1.810877,-3.35399 0,-2.46104 -2.185466,-4.15228 -4.795792,-3.71127 -1.279829,0.21623 -2.488845,1.37221 -2.911869,2.78413 -0.264801,0.88383 -0.240903,1.20039 0.157281,2.0834 1.169051,2.5925 3.515638,3.49103 5.739503,2.19773 z m 18.835857,2.65951 -2.421893,-0.0923 -0.176564,-2.96697 c -0.09711,-1.63183 -0.138353,-4.21712 -0.09165,-5.74509 l 0.08492,-2.77813 1.974397,-0.13229 c 2.994928,-0.20067 4.19317,-0.0456 4.387845,0.56774 0.271246,0.85462 -0.292277,1.20163 -2.036347,1.25396 -0.895506,0.0269 -1.729161,0.11126 -1.852565,0.18753 -0.123404,0.0763 -0.224372,0.66515 -0.224372,1.30864 0,1.38336 -0.07791,1.34806 3.739454,1.69403 0.326628,0.0296 0.467434,1.18345 0.185825,1.52277 -0.179618,0.21643 -0.907407,0.3445 -1.957686,0.3445 -0.919478,0 -1.737749,0.10674 -1.818378,0.2372 -0.08063,0.13046 -0.07147,0.7853 0.02035,1.45521 l 0.166947,1.218 h 1.121587 c 0.616876,0 1.5,0.0757 1.962499,0.16819 0.753158,0.15063 0.832538,0.25417 0.760677,0.99218 -0.09135,0.93819 0.03928,0.91207 -3.825044,0.76482 z m 5.812351,-0.0105 c -0.320805,-0.20968 -0.217025,-1.79043 0.447061,-6.80944 0.154035,-1.16416 0.350702,-2.67889 0.437041,-3.36606 0.175104,-1.3937 0.496874,-1.6164 1.901664,-1.31617 0.776425,0.16593 0.963628,0.38281 1.531416,1.77418 0.355774,0.87182 0.955418,2.33406 1.332542,3.2494 0.377124,0.91535 0.801817,1.62556 0.943761,1.57824 0.141946,-0.0473 0.408768,-0.49858 0.592942,-1.00281 1.57544,-4.31327 2.128731,-5.61651 2.434269,-5.73376 0.194861,-0.0748 0.753666,-0.061 1.241791,0.0305 0.878392,0.16479 0.890883,0.18749 1.217234,2.21189 0.181353,1.12496 0.432178,2.4621 0.557389,2.97143 0.125212,0.50932 0.347443,1.87854 0.493848,3.04271 0.146404,1.16416 0.344077,2.45168 0.439272,2.86114 0.171222,0.73649 0.160816,0.74359 -0.968851,0.66146 l -1.141934,-0.083 -0.355568,-2.11667 c -0.542444,-3.22909 -0.852102,-4.22306 -1.205529,-3.86963 -0.164296,0.16429 -0.787334,1.51889 -1.384531,3.01022 -1.080396,2.69797 -1.090321,2.7115 -1.989769,2.7115 h -0.903955 l -1.166309,-2.98712 c -0.659797,-1.68986 -1.294972,-2.94434 -1.462567,-2.88862 -0.162941,0.0542 -0.454472,1.16026 -0.647845,2.45796 -0.193374,1.29769 -0.495009,2.6571 -0.670301,3.0209 -0.326662,0.67796 -1.114727,0.95668 -1.673071,0.59173 z M 101.2598,137.4947 c -0.0448,-3.02784 -0.0455,-5.63674 -0.002,-5.79756 0.13135,-0.48161 4.39407,-0.67291 5.40909,-0.24274 2.20197,0.9332 2.94334,3.69929 1.52526,5.69081 -0.55527,0.77968 -2.5216,1.59119 -3.85564,1.59119 -0.52962,0 -0.60255,0.18418 -0.81188,2.05052 l -0.22999,2.05052 -0.97692,0.0812 -0.97692,0.0812 -0.0814,-5.50516 z m 4.64486,-1.2734 c 1.29008,-1.29009 0.2053,-3.32608 -1.53891,-2.88831 -0.78674,0.19746 -1.12492,1.43881 -0.69792,2.5619 0.21452,0.56425 0.44872,0.72485 1.05699,0.72485 0.42977,0 0.9607,-0.1793 1.17984,-0.39844 z m -66.409991,6.24285 c -1.2148,-0.30594 -2.356697,-1.21151 -2.773524,-2.19952 -0.393417,-0.93253 -0.541269,-8.98195 -0.17176,-9.35113 0.106651,-0.10655 0.582264,-0.0824 1.056918,0.0538 l 0.863005,0.24751 -0.07375,3.44233 c -0.08091,3.77671 0.230267,5.10873 1.332913,5.70563 1.206079,0.65289 3.137167,0.007 3.551554,-1.18698 0.109072,-0.31441 0.203013,-2.29805 0.208754,-4.4081 l 0.01045,-3.83646 h 1.058333 1.058334 v 4.54461 c 0,4.17735 -0.04409,4.60366 -0.545516,5.27532 -0.300032,0.40189 -0.835813,0.93939 -1.190625,1.19445 -0.745611,0.53599 -3.175105,0.82329 -4.385079,0.51857 z m 9.361382,-0.0754 c -0.06644,-0.18981 -0.06754,-2.2501 -0.0024,-4.57843 0.136303,-4.87424 0.0093,-5.28505 -1.61952,-5.23888 -0.959995,0.0272 -1.070236,-0.10038 -0.959955,-1.11112 0.05972,-0.54734 0.505711,-0.97375 0.817155,-0.78127 0.09777,0.0604 1.413144,0.17968 2.92305,0.26499 3.410805,0.19273 3.461893,0.20961 3.358317,1.11008 -0.07286,0.63341 -0.214104,0.73989 -1.076053,0.81123 -0.545703,0.0452 -1.014971,0.1047 -1.042818,0.13229 -0.02784,0.0276 -0.117142,2.1933 -0.198438,4.81268 l -0.147806,4.7625 -0.965349,0.0805 c -0.616323,0.0514 -1.009028,-0.0442 -1.086156,-0.26458 z m 18.389525,0.14113 c -0.250058,-0.10091 -0.330729,-1.50832 -0.330729,-5.76993 v -5.63646 l 0.859896,-0.13394 c 0.472943,-0.0737 0.948653,-0.052 1.057132,0.0481 0.108482,0.10015 0.27478,1.09941 0.369554,2.22058 0.09477,1.12117 0.272386,2.03849 0.394695,2.03849 0.122306,0 0.945015,-0.88046 1.828236,-1.95658 1.461154,-1.78027 1.713984,-1.97279 2.805756,-2.13651 0.659942,-0.099 1.265938,-0.11389 1.346657,-0.0332 0.179584,0.17958 -0.834014,1.73088 -2.177417,3.33251 -1.694974,2.02078 -1.697731,2.08692 -0.170127,4.07998 0.740328,0.96591 1.705496,2.1397 2.144818,2.60842 1.112417,1.18687 1.03491,1.51369 -0.358979,1.51369 -0.907666,0 -1.247695,-0.12958 -1.562195,-0.59532 -0.9672,-1.4323 -3.547139,-3.98356 -3.843266,-3.80055 -0.195514,0.12084 -0.31351,0.9241 -0.31351,2.13422 0,1.52536 -0.08953,1.9748 -0.418515,2.10105 -0.480963,0.18456 -1.153293,0.17853 -1.632006,-0.0146 z m 49.339284,0.0154 c -0.10611,-0.10611 -0.18538,-0.5005 -0.17616,-0.87643 l 0.0168,-0.68351 0.25537,0.63879 c 0.2752,0.68838 0.2182,1.23534 -0.096,0.92115 z m 3.8548,-0.7535 c 0.20238,-1.24709 -0.5143,-2.87335 -1.85874,-4.21779 -0.52485,-0.52485 -0.88007,-1.02847 -0.78939,-1.11915 0.22838,-0.22838 2.16146,1.7665 2.67604,2.76159 0.48969,0.94695 0.56397,3.10532 0.1164,3.38193 -0.22059,0.13634 -0.26083,-0.0885 -0.14431,-0.80658 z m -95.088701,0.10458 c -0.24912,-0.15396 -0.222606,-0.41386 0.114745,-1.12478 0.2413,-0.5085 0.438727,-1.057 0.438727,-1.21888 0,-0.16189 0.110918,-0.50108 0.246486,-0.75377 0.135567,-0.25269 0.618102,-1.41193 1.072299,-2.57609 0.454197,-1.16417 0.931107,-2.3548 1.059801,-2.64584 0.128694,-0.29104 0.313066,-0.80978 0.409716,-1.15276 0.486948,-1.72801 2.313356,-2.23548 3.231073,-0.89776 0.489192,0.71308 1.653541,3.3762 1.653541,3.78201 0,0.11315 0.405887,1.07954 0.90197,2.14753 2.108266,4.5388 2.135336,4.71994 0.705353,4.71994 -0.948084,0 -1.092517,-0.0979 -1.658805,-1.12448 L 32.905566,139.927 h -2.367671 -2.36767 l -0.59334,1.05834 c -0.593689,1.05895 -1.431647,1.40191 -2.225926,0.91101 z m 6.638888,-4.43338 c 0,-0.60678 -1.250991,-3.22452 -1.540961,-3.22452 -0.304923,0 -1.369455,2.43098 -1.369455,3.12731 0,0.52283 0.136287,0.57686 1.455208,0.57686 1.228742,0 1.455208,-0.0747 1.455208,-0.47965 z m 84.179273,1.80256 c 0,-0.3638 0.06,-0.51263 0.13345,-0.33073 0.0734,0.18191 0.0734,0.47956 0,0.66146 -0.0734,0.1819 -0.13345,0.0331 -0.13345,-0.33073 z m 0.77075,-3.28467 c -0.41843,-0.50417 -0.29322,-0.75263 0.21958,-0.43571 0.19542,0.12078 0.30668,0.36549 0.24724,0.5438 -0.0769,0.23059 -0.21164,0.19939 -0.46682,-0.10809 z m -2.22363,-1.12505 c -0.097,-0.097 -0.17639,-0.33933 -0.17639,-0.53847 0,-0.28177 0.11902,-0.29839 0.53657,-0.0749 0.29512,0.15794 0.46669,0.40025 0.38126,0.53847 -0.18139,0.2935 -0.49152,0.32484 -0.74144,0.0749 z m 85.12049,-4.05694 c 0.51206,-1.83953 0.48474,-2.27431 -0.20694,-3.29356 -0.82755,-1.21946 -0.9607,-2.2297 -0.15874,-1.20436 1.4154,1.80965 1.73499,3.78743 0.75226,4.65535 -0.56858,0.50215 -0.57002,0.50157 -0.38658,-0.15743 z m -2.47299,-0.24719 c -0.35151,-0.65679 -0.35714,-3.3743 -0.007,-3.59043 0.35469,-0.2192 0.46252,0.19133 0.60836,2.31626 0.12274,1.78823 -0.0874,2.23374 -0.60092,1.27417 z m -81.1041,-0.86614 c -0.29104,-0.16691 -0.68507,-0.49071 -0.87562,-0.71956 -0.49053,-0.58913 -1.57005,-2.91384 -1.79044,-3.85566 l -0.18573,-0.79375 0.52353,0.66145 c 0.28794,0.36381 0.83344,1.34551 1.21224,2.18156 0.97304,2.14764 2.28432,2.64749 3.18782,1.21515 0.34267,-0.54325 0.0189,-1.72336 -0.62384,-2.27368 -0.28706,-0.24578 -0.52192,-0.58513 -0.52192,-0.75409 0,-0.16897 -0.23813,-0.36949 -0.52917,-0.4456 -0.29104,-0.0761 -0.52916,-0.26859 -0.52916,-0.42773 0,-0.52689 0.45239,-0.30194 1.56579,0.77858 1.745,1.69346 1.94814,2.83644 0.73893,4.15758 -0.59577,0.65092 -1.35108,0.74679 -2.17243,0.27575 z m 75.18917,-4.81676 c 0.0924,-0.56936 -0.0119,-1.22064 -0.28236,-1.76274 -0.49085,-0.98394 -0.30867,-1.42962 0.26416,-0.64622 0.6868,0.93926 1.0188,2.44919 0.63912,2.90668 -0.54435,0.65591 -0.77776,0.46881 -0.62092,-0.49772 z m -3.04272,-0.0228 c -0.57297,-0.72842 -1.03756,-3.47985 -0.88239,-5.22581 0.0429,-0.48291 0.83489,-0.66577 0.83489,-0.19276 0,0.14864 0.29766,0.40587 0.66146,0.57163 0.84837,0.38655 0.86124,0.85312 0.0177,0.6414 -0.63711,-0.15991 -0.64274,-0.14476 -0.54441,1.46721 0.0546,0.89583 0.2413,1.97148 0.41479,2.39033 0.42263,1.02031 0.16647,1.19786 -0.50203,0.348 z m 9.59892,0.37898 c -0.0959,-0.1552 -0.11087,-0.34571 -0.0332,-0.42337 0.18952,-0.18952 0.70555,0.14442 0.70555,0.45659 0,0.33813 -0.45678,0.31556 -0.67233,-0.0332 z m -0.88209,-0.74308 c 0.11066,-0.33198 0.49609,-0.40907 0.49609,-0.0992 0,0.10914 -0.13394,0.24309 -0.29766,0.29766 -0.16371,0.0546 -0.253,-0.0347 -0.19843,-0.19844 z m -81.78932,-0.54662 c 0,-0.15411 -0.1786,-0.2802 -0.39688,-0.2802 -0.21828,0 -0.39687,-0.11906 -0.39687,-0.26459 0,-0.38549 0.50796,-0.32358 0.94697,0.11543 0.23755,0.23755 0.28006,0.44177 0.11339,0.54478 -0.14664,0.0906 -0.26661,0.0387 -0.26661,-0.11542 z m -3.04271,-1.33854 c -0.0899,-0.14552 -0.0374,-0.26458 0.11667,-0.26458 0.15411,0 0.2802,0.11906 0.2802,0.26458 0,0.14553 -0.0525,0.26459 -0.11667,0.26459 -0.0642,0 -0.19026,-0.11906 -0.2802,-0.26459 z m 77.56701,-0.97014 c -0.29666,-0.29665 -0.19682,-0.61736 0.19218,-0.61736 0.20271,0 0.4371,0.1786 0.52086,0.39688 0.15266,0.39781 -0.37313,0.5604 -0.71304,0.22048 z m -92.126009,-4.17146 c -2.573821,-0.85604 -6.308344,-2.72674 -7.929292,-3.97193 -2.025285,-1.5558 -6.090801,-6.06216 -5.838055,-6.47111 0.09151,-0.14807 0.731724,-0.23701 1.422691,-0.19766 1.148056,0.0654 1.369189,0.19557 2.56641,1.51079 2.147568,2.35923 3.427312,3.56435 5.251442,4.94526 1.857442,1.40612 6.142945,3.70418 6.409886,3.43724 0.08934,-0.0893 -0.653436,-0.5805 -1.650616,-1.09146 -2.610006,-1.33739 -2.934917,-1.59106 -6.607429,-5.15873 -2.757625,-2.6789 -3.268128,-3.29348 -3.00205,-3.61408 0.176329,-0.21246 0.439489,-0.38629 0.584803,-0.38629 0.145317,0 1.648786,1.34792 3.341042,2.99538 1.692257,1.64747 3.731676,3.48372 4.53204,4.08058 1.815272,1.3537 4.103557,2.51557 4.704237,2.38856 0.31443,-0.0665 0.12795,-0.25059 -0.60319,-0.59553 -1.91226,-0.90217 -3.399687,-2.04756 -6.350005,-4.88977 -1.600729,-1.54208 -3.208073,-2.99738 -3.571875,-3.23399 -0.443894,-0.28869 -0.574432,-0.51882 -0.396875,-0.69965 0.497462,-0.50663 1.70892,0.0138 3.504972,1.50561 3.313436,2.75222 4.158845,3.38137 6.022573,4.48202 1.02005,0.6024 2.54648,1.3333 3.39207,1.62423 0.8456,0.29093 1.89538,0.83014 2.33286,1.19825 0.43748,0.36812 0.90534,0.6693 1.0397,0.6693 0.52872,0 0.22336,1.02828 -0.35103,1.18206 -2.52238,0.67532 -5.07106,1.2049 -5.70873,1.18621 -0.24356,-0.007 -1.636568,-0.41002 -3.095579,-0.89529 z m 2.977969,-0.5745 c -0.0879,-0.0879 -0.31613,-0.0973 -0.50712,-0.0209 -0.211069,0.0845 -0.14838,0.14715 0.15985,0.15985 0.27891,0.0115 0.43518,-0.0511 0.34727,-0.13897 z m 69.65707,-3.8089 c 0,-0.14552 0.12609,-0.26458 0.2802,-0.26458 0.15411,0 0.20661,0.11906 0.11667,0.26458 -0.0899,0.14553 -0.21602,0.26459 -0.2802,0.26459 -0.0642,0 -0.11667,-0.11906 -0.11667,-0.26459 z m -71.669151,-2.9323 c -1.278424,-0.56731 -5.842402,-3.69842 -5.849368,-4.01295 -0.0024,-0.10914 0.426135,-0.19844 0.952341,-0.19844 0.674944,0 1.324684,0.27009 2.205963,0.91701 0.687073,0.50436 1.786295,1.14723 2.442713,1.42861 1.093131,0.46857 2.332082,1.63096 2.332082,2.18798 0,0.36282 -0.828831,0.23466 -2.083731,-0.32221 z m 71.717651,0.2292 c -0.37062,-0.37063 -0.40878,-0.73642 -0.0768,-0.73642 0.24248,0 0.64155,0.79786 0.47992,0.9595 -0.0495,0.0495 -0.2309,-0.0509 -0.40311,-0.22308 z m -0.68801,-1.23008 c -0.11398,-0.18442 -0.13578,-0.40675 -0.0485,-0.49409 0.2368,-0.23679 0.49498,0.11147 0.36708,0.49516 -0.0896,0.26886 -0.15194,0.26865 -0.31863,-10e-4 z m -1.33711,-1.86315 c -0.0881,-0.2776 -0.33425,-0.57152 -0.547,-0.65315 -0.21274,-0.0816 -0.3868,-0.35061 -0.3868,-0.59771 0,-0.35033 0.1732,-0.27932 0.7864,0.32242 0.77563,0.76114 1.03557,1.43316 0.55435,1.43316 -0.13572,0 -0.31884,-0.22712 -0.40695,-0.50472 z m -71.865935,-0.79401 c -1.023323,-0.54881 -1.152623,-0.91438 -0.363381,-1.02738 0.584647,-0.0837 1.909889,1.11307 1.507757,1.36161 -0.133175,0.0823 -0.648147,-0.0681 -1.144376,-0.33423 z m 73.842555,-6.90335 c 0,-0.14552 0.11906,-0.26458 0.26458,-0.26458 0.14552,0 0.26458,0.11906 0.26458,0.26458 0,0.14552 -0.11906,0.26458 -0.26458,0.26458 -0.14552,0 -0.26458,-0.11906 -0.26458,-0.26458 z m -0.26459,-1.05833 c 0,-0.49389 0.0706,-0.56445 0.3175,-0.3175 0.24695,0.24694 0.24695,0.38805 0,0.635 -0.24694,0.24694 -0.3175,0.17639 -0.3175,-0.3175 z m 3.39933,-0.99219 c -0.32681,-0.69122 -0.63996,-1.34607 -0.69589,-1.45521 -0.0559,-0.10914 0.0273,-0.19844 0.18493,-0.19844 0.15765,0 0.28663,0.11907 0.28663,0.26459 0,0.14552 0.23813,0.5027 0.52917,0.79375 0.45355,0.45354 0.76258,1.85208 0.40926,1.85208 -0.0659,0 -0.3873,-0.56555 -0.7141,-1.25677 z m -3.39933,-0.84428 c 0,-0.44515 0.11907,-0.80937 0.26459,-0.80937 0.14552,0 0.26458,0.29063 0.26458,0.64585 0,0.35521 -0.11906,0.71942 -0.26458,0.80936 -0.15437,0.0954 -0.26459,-0.17364 -0.26459,-0.64584 z m 0,-2.11667 c 0,-0.445146 0.10418,-0.809356 0.23151,-0.809356 0.12734,0 0.23152,0.29983 0.23152,0.666276 0,0.36646 -0.10418,0.73067 -0.23152,0.80936 -0.12733,0.0787 -0.23151,-0.22113 -0.23151,-0.66628 z"
       id="path3706"
       inkscape:connector-curvature="0" />
  </g>
</svg>
